<svg width="499" height="60" viewBox="0 0 499 60" fill="none" xmlns="http://www.w3.org/2000/svg">
<g clip-path="url(#clip0_0_5951)">
<path d="M68.3608 23.3247V11.8904H74.8086V13.1557H70.8212V23.3247H68.3608Z" fill="black"/>
<path d="M76.7975 21.9385C75.8926 20.8871 75.4307 19.4544 75.4307 17.6215C75.4307 15.7887 75.8831 14.3466 76.7975 13.2953C77.7024 12.2439 78.9939 11.7136 80.6718 11.7136C82.3591 11.7136 83.66 12.2439 84.5838 13.3046C85.5076 14.3652 85.96 15.8073 85.96 17.6215C85.96 19.4358 85.4981 20.8778 84.5838 21.9292C83.66 22.9805 82.3591 23.5108 80.6718 23.5108C79.0033 23.5201 77.7119 22.9898 76.7975 21.9385ZM82.6419 21.1663C83.0378 20.4313 83.2358 19.2497 83.2358 17.6215C83.2358 16.0027 83.0378 14.8211 82.6325 14.0861C82.2272 13.3511 81.5767 12.9789 80.6718 12.9789C79.7763 12.9789 79.1353 13.3511 78.7394 14.0861C78.3434 14.8211 78.1455 16.0027 78.1455 17.6215C78.1455 19.2497 78.3434 20.4313 78.7299 21.1663C79.1258 21.9012 79.7668 22.2641 80.6718 22.2641C81.5862 22.2641 82.246 21.9012 82.6419 21.1663Z" fill="black"/>
<path d="M88.6277 21.957C87.7134 20.915 87.2515 19.5009 87.2515 17.6959C87.2515 16.4957 87.4589 15.4537 87.8736 14.5512C88.2884 13.6488 88.8917 12.951 89.6929 12.4579C90.4848 11.9648 91.4368 11.7229 92.5209 11.7229C93.0676 11.7229 93.6049 11.788 94.1328 11.9276C94.6607 12.0671 95.1226 12.2067 95.5091 12.3649C95.8955 12.523 96.0841 12.6068 96.0841 12.6161L95.839 13.9C95.7541 13.8535 95.5562 13.7604 95.2357 13.6302C94.9152 13.4999 94.5287 13.3604 94.0857 13.2301C93.6426 13.0999 93.2184 13.0347 92.8319 13.0347C92.1627 13.0347 91.6254 13.1836 91.2106 13.472C90.7958 13.7604 90.4847 14.2442 90.2774 14.9141C90.07 15.584 89.9663 16.4771 89.9663 17.6029C89.9663 19.259 90.2114 20.4312 90.7016 21.1383C91.1917 21.8454 91.9459 22.1896 92.9639 22.1896C93.5295 22.1896 94.0385 22.0687 94.4721 21.8268C94.9058 21.5849 95.2545 21.3244 95.5279 21.036C95.7919 20.7476 95.9238 20.5894 95.9238 20.5522L96.7062 21.3988C96.7062 21.4546 96.546 21.6686 96.2349 22.0315C95.9238 22.3943 95.4619 22.7293 94.8586 23.0456C94.2553 23.3526 93.5106 23.5108 92.634 23.5108C90.8712 23.5201 89.5421 22.9991 88.6277 21.957Z" fill="black"/>
<path d="M99.1196 23.4178C98.8557 23.3526 98.6577 23.2875 98.5257 23.2131C98.3843 23.1386 98.2995 23.0921 98.2712 23.0735L98.5917 21.5942C98.6294 21.6221 98.7048 21.6593 98.8274 21.7152C98.9499 21.771 99.1102 21.8268 99.327 21.8826C99.5438 21.9385 99.7795 21.9571 100.043 21.9571C100.496 21.9571 100.873 21.8733 101.184 21.7152C101.495 21.5477 101.787 21.2314 102.08 20.7662L97.3003 11.8904H100.185L103.324 18.2542H103.38L105.482 11.8904H107.123L104.04 19.8079C103.522 21.1197 102.937 22.0687 102.296 22.6455C101.655 23.2224 100.911 23.5201 100.053 23.5201C99.6852 23.5201 99.3835 23.4829 99.1196 23.4178Z" fill="black"/>
<path d="M107.905 22.0594H109.102C109.602 21.0267 109.95 19.7613 110.167 18.2727C110.375 16.7748 110.478 14.6536 110.478 11.8997H117.162V22.0687H118.604L118.18 26.4135H116.794L116.398 23.334H110.054L109.338 26.4135H108.112L107.905 22.0594ZM114.692 22.0594V13.1557H111.911C111.883 15.4165 111.77 17.2214 111.553 18.5612C111.336 19.9009 111.006 21.0639 110.554 22.0501H114.692V22.0594Z" fill="black"/>
<path d="M119.349 23.3247L123.195 11.8904H125.919L129.52 23.3247H126.918L125.919 20.1242H121.894L120.838 23.3247H119.349ZM122.252 19.0171H125.589L124.005 13.6395H123.968L122.252 19.0171Z" fill="black"/>
<path d="M131.207 11.8904H134.751C136.071 11.8904 137.099 12.216 137.824 12.8673C138.55 13.5185 138.918 14.4861 138.918 15.7607C138.918 16.6725 138.72 17.4354 138.315 18.0309C137.909 18.6263 137.391 19.0636 136.769 19.3427C136.146 19.6218 135.487 19.7521 134.808 19.7521H133.667V23.3247H131.207V11.8904ZM134.525 18.6263C135.119 18.6263 135.562 18.4216 135.845 18.0216C136.128 17.6122 136.269 16.8958 136.269 15.8631C136.269 14.8211 136.128 14.0861 135.845 13.6674C135.562 13.2487 135.119 13.0347 134.525 13.0347H133.667V18.6263H134.525Z" fill="black"/>
<path d="M141.35 21.957C140.436 20.915 139.974 19.5009 139.974 17.6959C139.974 16.4957 140.181 15.4537 140.596 14.5512C141.011 13.6488 141.614 12.951 142.415 12.4579C143.207 11.9648 144.159 11.7229 145.252 11.7229C145.799 11.7229 146.337 11.788 146.864 11.9276C147.392 12.0671 147.854 12.2067 148.241 12.3649C148.627 12.523 148.816 12.6068 148.816 12.6161L148.571 13.9C148.486 13.8535 148.288 13.7604 147.967 13.6302C147.647 13.4999 147.26 13.3604 146.817 13.2301C146.374 13.0999 145.95 13.0347 145.564 13.0347C144.894 13.0347 144.357 13.1836 143.942 13.472C143.527 13.7604 143.216 14.2442 143.009 14.9141C142.802 15.584 142.698 16.4771 142.698 17.6029C142.698 19.259 142.943 20.4312 143.433 21.1383C143.923 21.8454 144.677 22.1896 145.695 22.1896C146.271 22.1896 146.77 22.0687 147.204 21.8268C147.637 21.5849 147.986 21.3244 148.26 21.036C148.523 20.7476 148.665 20.5894 148.665 20.5522L149.447 21.3988C149.447 21.4546 149.287 21.6686 148.976 22.0315C148.665 22.3943 148.203 22.7293 147.6 23.0456C146.996 23.3526 146.252 23.5108 145.375 23.5108C143.593 23.5201 142.264 22.9991 141.35 21.957Z" fill="black"/>
<path d="M152.973 23.3247V13.1557H149.853V11.8904H158.544V13.1557H155.442V23.3247H152.973Z" fill="black"/>
<path d="M160.166 11.8904H163.691C164.605 11.8904 165.369 12.0299 165.982 12.2997C166.594 12.5789 167.047 12.9417 167.348 13.3883C167.65 13.8442 167.792 14.328 167.792 14.8583C167.792 15.4444 167.631 15.9468 167.301 16.3562C166.971 16.7656 166.566 17.1005 166.066 17.361C166.745 17.575 167.283 17.9099 167.688 18.3658C168.093 18.8217 168.291 19.3799 168.291 20.0405C168.291 21.036 167.905 21.8361 167.141 22.4316C166.378 23.027 165.256 23.3247 163.785 23.3247H160.166V11.8904ZM164.087 16.9702C164.417 16.9702 164.719 16.8121 164.992 16.5051C165.256 16.198 165.388 15.6956 165.388 14.9978C165.388 14.3187 165.228 13.8163 164.907 13.4999C164.587 13.1836 164.162 13.0254 163.625 13.0254H162.626V16.9609H164.087V16.9702ZM163.729 22.1803C164.37 22.1803 164.879 21.9943 165.246 21.6221C165.614 21.25 165.803 20.6917 165.803 19.9381C165.803 18.6635 165.275 18.0216 164.219 18.0216H162.635V22.171H163.729V22.1803Z" fill="black"/>
<path d="M170.308 23.3247V11.8904H177.255V13.1557H172.768V16.9237H176.728V18.1518H172.768V22.0594H177.51V23.3247H170.308Z" fill="black"/>
<path d="M179.641 23.3247V11.8904H182.101V16.8865H186.107V11.8904H188.567V23.3247H186.107V18.1146H182.101V23.3247H179.641Z" fill="black"/>
<path d="M191.32 23.3247V11.8904H193.78V16.8865H197.786V11.8904H200.247V23.3247H197.786V18.1146H193.78V23.3247H191.32Z" fill="black"/>
<path d="M202.99 11.8904H205.45V16.2725H206.289C207.75 16.2725 208.872 16.5516 209.654 17.1191C210.437 17.6866 210.833 18.524 210.833 19.6497C210.833 20.822 210.456 21.7245 209.701 22.3664C208.947 23.0084 207.835 23.3247 206.364 23.3247H202.999V11.8904H202.99ZM206.298 22.1803C206.996 22.1803 207.505 21.985 207.816 21.6035C208.127 21.2221 208.278 20.5894 208.278 19.7149C208.278 18.8496 208.118 18.2356 207.797 17.8913C207.477 17.5471 206.968 17.3703 206.28 17.3703H205.441V22.171H206.298V22.1803ZM212.133 23.3247V11.8904H214.594V23.3247H212.133Z" fill="black"/>
<path d="M217.328 23.3247V11.8903H219.788V19.4729L219.665 20.6173H219.703L224.19 12.2811L224.35 11.8903H226.632V23.3247H224.171V15.9375L224.275 14.6722H224.256L219.788 22.9339L219.647 23.3247H217.328ZM219.628 10.2622C219.307 9.74116 219.147 9.28528 219.147 8.88521L221.004 8.72705V8.93173C220.995 8.95965 220.976 8.99686 220.957 9.06199C220.938 9.12711 220.929 9.20154 220.929 9.28528C220.929 9.47135 221.004 9.63882 221.164 9.76907C221.315 9.90863 221.588 9.97376 221.965 9.97376C222.361 9.97376 222.635 9.90863 222.786 9.76907C222.936 9.63882 223.021 9.47135 223.021 9.28528C223.021 9.20154 223.012 9.12711 222.993 9.06199C222.974 8.99686 222.965 8.95034 222.946 8.93173V8.72705L224.803 8.88521C224.803 9.28528 224.643 9.74116 224.313 10.2622C223.983 10.7832 223.2 11.0437 221.965 11.0437C220.731 11.0437 219.948 10.7832 219.628 10.2622Z" fill="black"/>
<path d="M233.918 23.3247V11.8904H236.378V17.1842L237.434 16.4306L240.837 11.8904H242.543L239.037 16.3562L243.363 23.3247H240.243L237.142 18.189L236.378 18.7193V23.3247H233.918Z" fill="black"/>
<path d="M245.711 21.9385C244.806 20.8871 244.344 19.4544 244.344 17.6215C244.344 15.7887 244.796 14.3466 245.711 13.2953C246.616 12.2439 247.907 11.7136 249.585 11.7136C251.272 11.7136 252.573 12.2439 253.497 13.3046C254.421 14.3652 254.873 15.8073 254.873 17.6215C254.873 19.4358 254.411 20.8778 253.497 21.9292C252.573 22.9805 251.272 23.5108 249.585 23.5108C247.907 23.5201 246.616 22.9898 245.711 21.9385ZM251.555 21.1663C251.951 20.4313 252.149 19.2497 252.149 17.6215C252.149 16.0027 251.951 14.8211 251.546 14.0861C251.14 13.3511 250.49 12.9789 249.585 12.9789C248.689 12.9789 248.048 13.3511 247.652 14.0861C247.257 14.8211 247.059 16.0027 247.059 17.6215C247.059 19.2497 247.257 20.4313 247.643 21.1663C248.039 21.9012 248.68 22.2641 249.585 22.2641C250.499 22.2641 251.159 21.9012 251.555 21.1663Z" fill="black"/>
<path d="M256.891 23.3247L257.032 11.8904H260.011L263.253 20.3103H263.329L266.515 11.8904H269.277L269.4 23.3247H266.996L266.873 14.6722H266.817L263.593 23.3247H261.755L258.531 14.6722H258.474L258.418 23.3247H256.891Z" fill="black"/>
<path d="M272.143 23.3247V11.8904H274.603V19.473L274.48 20.6173H274.518L279.005 12.2811L279.165 11.8904H281.447V23.3247H278.986V15.9375L279.09 14.6722H279.071L274.603 22.934L274.461 23.3247H272.143Z" fill="black"/>
<path d="M286.188 23.3247V13.1557H283.068V11.8904H291.759V13.1557H288.658V23.3247H286.188Z" fill="black"/>
<path d="M293.38 23.3247V11.8904H300.328V13.1557H295.841V16.9237H299.8V18.1518H295.841V22.0594H300.582V23.3247H293.38Z" fill="black"/>
<path d="M304.72 23.3247V13.1557H301.6V11.8904H310.291V13.1557H307.19V23.3247H304.72Z" fill="black"/>
<path d="M316.456 11.8904H320C321.32 11.8904 322.348 12.216 323.073 12.8673C323.799 13.5185 324.167 14.4861 324.167 15.7607C324.167 16.6725 323.969 17.4354 323.564 18.0309C323.158 18.6263 322.64 19.0636 322.018 19.3427C321.396 19.6218 320.736 19.7521 320.057 19.7521H318.916V23.3247H316.456V11.8904ZM319.774 18.6263C320.368 18.6263 320.811 18.4216 321.094 18.0216C321.377 17.6122 321.518 16.8958 321.518 15.8631C321.518 14.8211 321.377 14.0861 321.094 13.6674C320.811 13.2487 320.368 13.0347 319.774 13.0347H318.916V18.6263H319.774Z" fill="black"/>
<path d="M325.958 23.3247V11.8904H332.905V13.1557H328.418V16.9237H332.377V18.1518H328.418V22.0594H333.16V23.3247H325.958Z" fill="black"/>
<path d="M335.931 21.957C335.017 20.915 334.555 19.5009 334.555 17.6959C334.555 16.4957 334.763 15.4537 335.177 14.5512C335.592 13.6488 336.195 12.951 336.997 12.4579C337.788 11.9648 338.741 11.7229 339.834 11.7229C340.381 11.7229 340.918 11.788 341.446 11.9276C341.974 12.0671 342.436 12.2067 342.822 12.3649C343.209 12.523 343.397 12.6068 343.397 12.6161L343.152 13.9C343.067 13.8535 342.869 13.7604 342.549 13.6302C342.228 13.4999 341.842 13.3604 341.399 13.2301C340.956 13.0999 340.532 13.0347 340.145 13.0347C339.476 13.0347 338.938 13.1836 338.524 13.472C338.109 13.7604 337.798 14.2442 337.591 14.9141C337.383 15.584 337.279 16.4771 337.279 17.6029C337.279 19.259 337.525 20.4312 338.015 21.1383C338.505 21.8454 339.259 22.1896 340.277 22.1896C340.852 22.1896 341.352 22.0687 341.785 21.8268C342.219 21.5849 342.568 21.3244 342.841 21.036C343.105 20.7476 343.246 20.5894 343.246 20.5522L344.029 21.3988C344.029 21.4546 343.869 21.6686 343.557 22.0315C343.246 22.3943 342.784 22.7293 342.181 23.0456C341.578 23.3526 340.833 23.5108 339.957 23.5108C338.184 23.5201 336.846 22.9991 335.931 21.957Z" fill="black"/>
<path d="M345.556 23.3247V11.8904H354.219V23.3247H351.758V13.1557H348.016V23.3247H345.556Z" fill="black"/>
<path d="M357.838 23.4178C357.574 23.3526 357.376 23.2875 357.245 23.2131C357.103 23.1386 357.018 23.0921 356.99 23.0735L357.31 21.5942C357.348 21.6221 357.424 21.6593 357.546 21.7152C357.669 21.771 357.829 21.8268 358.046 21.8826C358.263 21.9385 358.498 21.9571 358.762 21.9571C359.215 21.9571 359.592 21.8733 359.903 21.7152C360.214 21.5477 360.506 21.2314 360.798 20.7662L356.019 11.8904H358.904L362.043 18.2542H362.099L364.201 11.8904H365.841L362.759 19.8079C362.241 21.1197 361.656 22.0687 361.015 22.6455C360.374 23.2224 359.629 23.5201 358.772 23.5201C358.404 23.5201 358.093 23.4829 357.838 23.4178Z" fill="black"/>
<path d="M367.585 11.8904H374.09V13.1557H370.065V16.2725H370.809C372.28 16.2725 373.42 16.5516 374.222 17.1191C375.023 17.6866 375.428 18.524 375.428 19.6497C375.428 20.8127 375.042 21.7152 374.269 22.3571C373.496 22.9991 372.365 23.3247 370.885 23.3247H367.585V11.8904ZM370.847 22.1803C371.563 22.1803 372.072 21.9943 372.393 21.6314C372.713 21.2686 372.874 20.6266 372.874 19.7149C372.874 18.8217 372.713 18.2076 372.384 17.8727C372.054 17.5378 371.535 17.3703 370.828 17.3703H370.065V22.171H370.847V22.1803Z" fill="black"/>
<path d="M376.758 23.4363C376.578 23.3991 376.494 23.3712 376.494 23.3526L376.578 21.8082C376.616 21.8175 376.682 21.8361 376.795 21.864C376.908 21.8919 377.012 21.9012 377.116 21.9012C377.945 21.9012 378.558 21.1197 378.963 19.5567C379.359 17.9936 379.557 15.4351 379.557 11.8997H385.882V23.334H383.422V13.1557H380.962C380.952 16.6167 380.641 19.2031 380.038 20.9243C379.435 22.6455 378.567 23.5015 377.455 23.5015C377.172 23.5015 376.937 23.4735 376.758 23.4363Z" fill="black"/>
<path d="M388.625 23.3247V11.8904H391.086V19.473L390.963 20.6173H391.001L395.488 12.2811L395.648 11.8904H397.929V23.3247H395.469V15.9375L395.573 14.6722H395.554L391.086 22.934L390.944 23.3247H388.625Z" fill="black"/>
<path d="M400.672 23.3247V11.8904H403.133V17.1842L404.188 16.4306L407.591 11.8904H409.298L405.791 16.3562L410.118 23.3247H406.998L403.896 18.189L403.133 18.7193V23.3247H400.672Z" fill="black"/>
<path d="M411.824 23.3247V11.8904H414.285V19.473L414.162 20.6173H414.2L418.687 12.2811L418.847 11.8904H421.128V23.3247H418.668V15.9375L418.772 14.6722H418.753L414.285 22.934L414.143 23.3247H411.824Z" fill="black"/>
<path d="M427.387 23.3247L431.233 11.8904H433.957L437.558 23.3247H434.957L433.957 20.1242H429.932L428.877 23.3247H427.387ZM430.291 19.0171H433.618L432.034 13.6395H431.997L430.291 19.0171Z" fill="black"/>
<path d="M439.255 11.8904H445.759V13.1557H441.734V16.2725H442.479C443.949 16.2725 445.09 16.5516 445.891 17.1191C446.692 17.6866 447.098 18.524 447.098 19.6497C447.098 20.8127 446.711 21.7152 445.938 22.3571C445.165 22.9991 444.034 23.3247 442.554 23.3247H439.255V11.8904ZM442.516 22.1803C443.233 22.1803 443.742 21.9943 444.062 21.6314C444.383 21.2686 444.543 20.6266 444.543 19.7149C444.543 18.8217 444.383 18.2076 444.053 17.8727C443.723 17.5378 443.205 17.3703 442.498 17.3703H441.734V22.171H442.516V22.1803Z" fill="black"/>
<path d="M447.88 23.3247L451.481 17.7703L448.041 11.8997H451.123L453.263 15.9933H453.319L455.799 11.8997H457.543L454.158 17.1749L457.957 23.334H454.894L452.415 18.9705H452.358L449.737 23.334H447.88V23.3247Z" fill="black"/>
<path d="M458.429 23.3247L462.275 11.8904H464.999L468.6 23.3247H465.998L464.999 20.1242H460.974L459.918 23.3247H458.429ZM461.332 19.0171H464.669L463.085 13.6395H463.048L461.332 19.0171Z" fill="black"/>
<path d="M470.758 23.1108C470.183 22.841 469.778 22.5526 469.523 22.2455C469.269 21.9385 469.137 21.7524 469.137 21.6873L469.881 20.7755C469.881 20.8128 469.995 20.9523 470.23 21.2035C470.466 21.4547 470.786 21.6873 471.211 21.9013C471.635 22.1153 472.125 22.2176 472.7 22.2176C473.991 22.2176 474.642 21.5012 474.642 20.0685C474.642 19.3149 474.51 18.7938 474.255 18.5054C474.001 18.2077 473.614 18.0681 473.086 18.0681L471.371 18.2077V16.8494L473.247 17.0075C473.567 16.9982 473.841 16.8121 474.076 16.4586C474.312 16.1051 474.425 15.5654 474.425 14.8397C474.425 14.1513 474.293 13.6582 474.029 13.3697C473.765 13.0813 473.331 12.9418 472.728 12.9418C472.398 12.9418 472.05 12.9976 471.672 13.1092C471.305 13.2209 470.994 13.3418 470.73 13.4628C470.466 13.5837 470.306 13.6675 470.23 13.6954L469.995 12.4952C469.995 12.4859 470.164 12.4115 470.513 12.2626C470.862 12.1137 471.267 11.9928 471.738 11.8718C472.21 11.7509 472.7 11.6951 473.2 11.6951C474.425 11.6951 475.368 11.9649 476.037 12.5045C476.706 13.0441 477.036 13.7791 477.036 14.7002C477.036 15.3608 476.857 15.9004 476.508 16.347C476.159 16.7842 475.716 17.1378 475.179 17.4076C476.65 17.7611 477.385 18.6543 477.385 20.0778C477.385 20.7476 477.196 21.3338 476.829 21.8548C476.461 22.3758 475.943 22.7759 475.273 23.055C474.604 23.3341 473.841 23.4829 472.983 23.4829C472.078 23.5202 471.324 23.3806 470.758 23.1108Z" fill="black"/>
<path d="M479.402 23.3247V11.8904H481.863V19.473L481.74 20.6173H481.778L486.265 12.2811L486.425 11.8904H488.706V23.3247H486.246V15.9375L486.35 14.6722H486.331L481.863 22.934L481.721 23.3247H479.402Z" fill="black"/>
<path d="M493.118 18.6077C492.477 18.3565 491.959 17.975 491.563 17.4447C491.167 16.9144 490.969 16.2632 490.969 15.4723C490.969 14.3094 491.327 13.4255 492.034 12.8115C492.75 12.1974 493.665 11.8904 494.796 11.8904H499V23.3247H496.521V18.9054H495.201L493.241 23.3247H490.714L493.118 18.6077ZM496.521 17.6959V13.0534H494.881C494.428 13.0534 494.08 13.2487 493.825 13.6488C493.571 14.0489 493.439 14.6443 493.439 15.4258C493.439 16.1887 493.561 16.7563 493.825 17.1284C494.08 17.5006 494.438 17.6866 494.9 17.6866H496.521V17.6959Z" fill="black"/>
<path d="M68.3608 47.3562V35.9312H77.0238V47.3562H74.5635V37.1965H70.8212V47.3562H68.3608Z" fill="black"/>
<path d="M80.3986 45.9792C79.4936 44.9279 79.0317 43.4951 79.0317 41.6623C79.0317 39.8387 79.4842 38.3874 80.3986 37.336C81.313 36.2847 82.595 35.7544 84.2729 35.7544C85.9602 35.7544 87.2611 36.2847 88.1849 37.3453C89.1086 38.406 89.5611 39.8481 89.5611 41.6623C89.5611 43.4765 89.0992 44.9186 88.1849 45.9699C87.2611 47.0213 85.9602 47.5516 84.2729 47.5516C82.6044 47.5516 81.313 47.0306 80.3986 45.9792ZM86.243 45.207C86.6389 44.472 86.8369 43.2904 86.8369 41.6623C86.8369 40.0434 86.6389 38.8712 86.2336 38.1269C85.8282 37.3919 85.1778 37.0197 84.2729 37.0197C83.3773 37.0197 82.7363 37.3919 82.3404 38.1269C81.9445 38.8619 81.7466 40.0434 81.7466 41.6623C81.7466 43.2904 81.9445 44.472 82.331 45.207C82.7269 45.942 83.3679 46.3049 84.2729 46.3049C85.1872 46.3049 85.8471 45.942 86.243 45.207Z" fill="black"/>
<path d="M96.7723 45.9981C95.8579 44.956 95.396 43.5419 95.396 41.7369C95.396 40.5368 95.6034 39.4947 96.0181 38.5923C96.4329 37.6898 97.0362 36.992 97.8375 36.4989C98.6293 36.0058 99.5814 35.7639 100.675 35.7639C101.222 35.7639 101.759 35.829 102.287 35.9686C102.815 36.0989 103.277 36.2477 103.663 36.4059C104.05 36.564 104.238 36.6478 104.238 36.6571L103.993 37.941C103.908 37.8945 103.71 37.8014 103.39 37.6712C103.069 37.5409 102.683 37.4014 102.24 37.2804C101.797 37.1595 101.372 37.0851 100.986 37.0851C100.317 37.0851 99.7793 37.2339 99.3645 37.5223C98.9498 37.8201 98.6387 38.2945 98.4313 38.9644C98.2239 39.6343 98.1202 40.5274 98.1202 41.6532C98.1202 43.3093 98.3653 44.4815 98.8555 45.1886C99.3457 45.8957 100.1 46.24 101.118 46.24C101.693 46.24 102.192 46.119 102.626 45.8771C103.06 45.6352 103.409 45.3747 103.682 45.0863C103.946 44.7979 104.087 44.6397 104.087 44.6025L104.87 45.4491C104.87 45.505 104.709 45.7189 104.398 46.0818C104.087 46.4446 103.625 46.7796 103.013 47.0959C102.4 47.4122 101.665 47.5611 100.788 47.5611C99.0158 47.5518 97.6866 47.0308 96.7723 45.9981Z" fill="black"/>
<path d="M108.386 47.3562V37.1965H105.266V35.9312H113.957V37.1965H110.856V47.3562H108.386Z" fill="black"/>
<path d="M114.551 47.3562L118.397 35.9219H121.121L124.722 47.3562H122.12L121.121 44.1557H117.096L116.04 47.3562H114.551ZM117.454 43.0486H120.791L119.207 37.6617H119.17L117.454 43.0486Z" fill="black"/>
<path d="M128.417 47.3562V37.1965H125.297V35.9312H133.988V37.1965H130.887V47.3562H128.417Z" fill="black"/>
<path d="M135.609 47.3562V35.9312H138.07V43.5137L137.947 44.6581H137.985L142.472 36.3219L142.632 35.9312H144.913V47.3562H142.453V39.969L142.557 38.7037H142.538L138.07 46.9654L137.928 47.3562H135.609Z" fill="black"/>
<path d="M148.297 45.9981C147.383 44.956 146.921 43.5419 146.921 41.7369C146.921 40.5368 147.128 39.4947 147.543 38.5923C147.958 37.6898 148.561 36.992 149.362 36.4989C150.154 36.0058 151.106 35.7639 152.2 35.7639C152.746 35.7639 153.284 35.829 153.812 35.9686C154.34 36.0989 154.801 36.2477 155.188 36.4059C155.574 36.564 155.763 36.6478 155.763 36.6571L155.518 37.941C155.433 37.8945 155.235 37.8014 154.915 37.6712C154.594 37.5409 154.208 37.4014 153.765 37.2804C153.321 37.1595 152.897 37.0851 152.511 37.0851C151.842 37.0851 151.304 37.2339 150.889 37.5223C150.475 37.8201 150.164 38.2945 149.956 38.9644C149.749 39.6343 149.645 40.5274 149.645 41.6532C149.645 43.3093 149.89 44.4815 150.38 45.1886C150.871 45.8957 151.625 46.24 152.643 46.24C153.218 46.24 153.717 46.119 154.151 45.8771C154.585 45.6352 154.933 45.3747 155.207 45.0863C155.48 44.7979 155.612 44.6397 155.612 44.6025L156.395 45.4491C156.395 45.505 156.234 45.7189 155.923 46.0818C155.612 46.4446 155.15 46.7796 154.547 47.0959C153.944 47.4122 153.199 47.5611 152.322 47.5611C150.55 47.5518 149.212 47.0308 148.297 45.9981Z" fill="black"/>
<path d="M159.92 47.3562V37.1965H156.8V35.9312H165.491V37.1965H162.39V47.3562H159.92Z" fill="black"/>
<path d="M167.122 47.3562V35.9312H169.582V43.5137L169.46 44.6581H169.498L173.985 36.3219L174.145 35.9312H176.426V47.3562H173.966V39.969L174.069 38.7037H174.051L169.582 46.9654L169.441 47.3562H167.122Z" fill="black"/>
<path d="M179.16 47.3562V35.9312H181.62V41.225L182.676 40.4714L186.079 35.9312H187.785L184.278 40.397L188.605 47.3655H185.485L182.384 42.2298L181.62 42.7601V47.3655H179.16V47.3562Z" fill="black"/>
<path d="M190.321 47.3562V35.9312H197.268V37.1965H192.781V40.9552H196.74V42.1833H192.781V46.0909H197.523V47.3562H190.321Z" fill="black"/>
<path fill-rule="evenodd" clip-rule="evenodd" d="M24.5372 47.6445C21.7564 47.6445 24.5372 52.7895 24.5372 52.7895C24.5372 52.7895 27.318 47.6445 24.5372 47.6445Z" fill="#D8AE00"/>
<path fill-rule="evenodd" clip-rule="evenodd" d="M20.6439 47.5144C19.3902 47.3097 18.2778 48.2029 18.2778 50.3241C18.6266 49.7752 19.3902 48.7425 20.6439 48.9565C21.8976 49.1611 23.0099 48.268 23.0099 46.1467C22.6611 46.6863 21.8976 47.7191 20.6439 47.5144Z" fill="#D8AE00"/>
<path fill-rule="evenodd" clip-rule="evenodd" d="M23.981 46.6864C23.981 46.9934 24.226 47.2353 24.5371 47.2353C24.8482 47.2353 25.0933 46.9934 25.0933 46.6864C25.0933 46.3793 24.8482 46.1375 24.5371 46.1375C24.226 46.1375 23.981 46.3887 23.981 46.6864Z" fill="#D8AE00"/>
<path fill-rule="evenodd" clip-rule="evenodd" d="M21.4077 44.565C21.4077 41.8204 16.1948 44.565 16.1948 44.565C16.1948 44.565 21.4077 47.3004 21.4077 44.565Z" fill="#D8AE00"/>
<path fill-rule="evenodd" clip-rule="evenodd" d="M18.7021 38.3875C19.2583 38.7317 20.3046 39.4853 20.0878 40.7227C19.8805 41.9601 20.7854 43.0579 22.9346 43.0579C22.3785 42.7137 21.3321 41.9601 21.5489 40.7227C21.7563 39.4853 20.8514 38.3875 18.7021 38.3875Z" fill="#D8AE00"/>
<path fill-rule="evenodd" clip-rule="evenodd" d="M21.8223 44.565C21.8223 44.8721 22.0674 45.114 22.3784 45.114C22.6895 45.114 22.9346 44.8721 22.9346 44.565C22.9346 44.258 22.6895 44.0161 22.3784 44.0161C22.0768 44.0068 21.8223 44.258 21.8223 44.565Z" fill="#D8AE00"/>
<path fill-rule="evenodd" clip-rule="evenodd" d="M24.5372 41.4763C27.318 41.4763 24.5372 36.3313 24.5372 36.3313C24.5372 36.3313 21.7564 41.4763 24.5372 41.4763Z" fill="#D8AE00"/>
<path fill-rule="evenodd" clip-rule="evenodd" d="M28.43 41.6064C29.6837 41.8111 30.7961 40.9179 30.7961 38.7966C30.4473 39.3456 29.6837 40.3783 28.43 40.1643C27.1763 39.9596 26.064 40.8528 26.064 42.974C26.4127 42.4344 27.1763 41.4017 28.43 41.6064Z" fill="#D8AE00"/>
<path fill-rule="evenodd" clip-rule="evenodd" d="M25.0933 42.4344C25.0933 42.1274 24.8482 41.8855 24.5371 41.8855C24.226 41.8855 23.981 42.1274 23.981 42.4344C23.981 42.7414 24.226 42.9833 24.5371 42.9833C24.8482 42.9833 25.0933 42.7321 25.0933 42.4344Z" fill="#D8AE00"/>
<path fill-rule="evenodd" clip-rule="evenodd" d="M27.6665 44.565C27.6665 47.3097 32.8793 44.565 32.8793 44.565C32.8793 44.565 27.6665 41.8204 27.6665 44.565Z" fill="#D8AE00"/>
<path fill-rule="evenodd" clip-rule="evenodd" d="M28.9864 48.4075C29.1938 47.1701 28.2889 46.0723 26.1396 46.0723C26.6958 46.4165 27.7421 47.1701 27.5348 48.4075C27.3274 49.6449 28.2323 50.7428 30.3816 50.7428C29.816 50.3892 28.7791 49.6356 28.9864 48.4075Z" fill="#D8AE00"/>
<path fill-rule="evenodd" clip-rule="evenodd" d="M26.1396 44.565C26.1396 44.8721 26.3847 45.114 26.6958 45.114C27.0069 45.114 27.252 44.8721 27.252 44.565C27.252 44.258 27.0069 44.0161 26.6958 44.0161C26.3847 44.0068 26.1396 44.258 26.1396 44.565Z" fill="#D8AE00"/>
<path fill-rule="evenodd" clip-rule="evenodd" d="M23.4907 44.5649C23.4907 45.1325 23.962 45.5977 24.5371 45.5977C25.1121 45.5977 25.5834 45.1325 25.5834 44.5649C25.5834 43.9974 25.1121 43.5322 24.5371 43.5322C23.962 43.5322 23.4907 43.9881 23.4907 44.5649Z" fill="#D8AE00"/>
<path fill-rule="evenodd" clip-rule="evenodd" d="M43.0601 28.0137C42.5605 27.7531 42.042 27.474 41.3633 27.474C40.694 27.4833 40.1473 27.7625 39.6288 28.0323C39.0915 28.3114 38.5448 28.5998 37.8189 28.6277C37.5362 28.1253 36.0091 25.6784 32.8795 25.6784C30.8528 25.6784 29.42 26.5623 28.1662 27.3438C27.3461 27.8555 26.5543 28.3393 25.6776 28.544V29.1208L25.3477 29.4278C25.2252 29.4185 25.1026 29.4185 24.9801 29.4185C23.8206 29.4185 22.9345 29.8186 22.1144 30.2745C22.944 30.5257 23.6792 30.6559 24.3108 30.6559C25.574 30.6559 25.9227 30.1628 25.9981 30.014L26.4883 29.9302C26.6203 30.0512 26.724 30.1907 26.8182 30.3303C27.0068 30.5815 27.1293 30.7397 27.365 30.8048C28.3171 30.8141 28.779 31.0746 29.1937 31.2979C29.3822 31.4002 29.5614 31.5026 29.7876 31.577L29.7499 32.1631C28.8167 32.3678 28.0154 32.3771 27.167 32.3957C26.2244 32.4143 25.2535 32.4236 24.0563 32.7121L23.9337 32.7214C23.4718 32.6562 23.0382 32.6283 22.5952 32.6283C21.6525 32.6283 20.8513 32.7679 19.9181 32.9353C19.0037 33.0935 17.9668 33.2796 16.6282 33.3447L16.5245 33.0098L16.4397 32.954C16.4397 32.8888 16.4585 32.8423 16.4585 32.7772V32.7679C16.6565 29.7721 18.7963 27.9299 20.8042 26.9716C20.5119 26.7483 20.2103 26.5064 19.8992 26.2459C19.9558 25.1853 20.0123 23.3153 18.2402 21.8546C18.2779 21.7801 18.391 21.715 18.7398 21.715C18.834 21.715 19.2394 21.7336 19.3431 21.7336L19.4656 21.7243L19.6164 21.5661L19.607 21.408C19.5881 21.194 19.5693 21.0079 19.673 20.8963C19.7955 20.766 20.0689 20.7009 20.5025 20.7009L20.6628 20.5427V19.3239L20.5025 19.1658H8.69113L8.56859 19.2216L8.44604 19.3611C6.58903 21.3894 4.68488 23.4827 4.63775 26.5716C4.61889 26.7297 4.28897 26.8693 4.0156 26.9902C3.65739 27.1484 3.31804 27.2973 3.25205 27.5764L3.40288 27.7625C4.77914 27.7438 5.81606 27.6973 6.80584 27.6601C8.10669 27.6136 9.33213 27.5578 11.1232 27.5578L11.274 27.381C11.1986 26.8507 10.7084 25.9575 9.80346 25.9017C8.89851 25.4551 8.65343 25.0085 8.71941 24.748C8.77597 24.4968 9.1059 24.3201 9.53009 24.3201C10.3313 24.3201 11.8113 25.0085 12.3392 27.5392C10.0674 28.9999 10.4068 30.7862 10.7555 32.6748L10.7744 32.7772C9.1436 32.0887 7.69193 31.7631 6.22139 31.7631C4.89226 31.7631 3.57255 32.0236 2.19629 32.5632V34.2565C3.3746 33.7913 4.43979 33.568 5.49556 33.568C5.99516 33.568 6.45706 33.6145 6.89067 33.689C4.45864 33.7541 3.25205 34.3123 2.19629 34.8984V35.3729C2.19629 36.0149 2.22457 36.6569 2.28113 37.2895C4.10986 35.987 5.75007 35.3357 7.19232 35.3357C9.16246 35.3357 10.3031 36.5359 10.9912 37.4477L11.1232 37.5128H16.336L16.4585 37.4384C18.5324 34.4519 21.4546 32.8051 24.7067 32.8051C28.0814 32.8051 31.3712 34.6565 32.5307 37.2151L32.6721 37.3081L37.6116 37.2895C37.9415 37.1034 38.2714 36.9174 38.5919 36.7313C39.7797 36.0242 40.9108 35.3636 42.4379 35.3636C43.7105 35.3636 45.1527 35.8474 46.8212 36.8243C46.8589 36.3405 46.8778 35.8567 46.8778 35.3729V35.3264C46.2085 34.8612 45.4261 34.5542 44.7474 34.2937C44.3232 34.1262 43.9367 33.9774 43.6445 33.8099C43.9085 33.782 44.1818 33.7634 44.474 33.7355C45.247 33.6703 46.086 33.6052 46.8778 33.3261V31.6328C45.9257 32.1073 45.0491 32.3306 44.1535 32.3306C43.1261 32.3306 42.0986 32.0236 41.0239 31.3909L40.8543 31.4002C40.5055 31.6328 40.1944 31.8933 39.8833 32.1445C39.1009 32.7772 38.3563 33.3819 37.1591 33.6983C37.7341 32.6562 38.0075 31.4747 37.9792 30.0977L46.8778 29.9768V27.4647C45.9729 28.1811 45.2282 28.5161 44.5589 28.5161C43.9933 28.5161 43.5408 28.2742 43.0601 28.0137Z" fill="#D8AE00"/>
<path fill-rule="evenodd" clip-rule="evenodd" d="M0 0V35.7823C0 49.1518 10.9818 60 24.5371 60C38.0924 60 49.0742 49.1518 49.0742 35.7823V0H0ZM24.5371 57.7299C12.754 57.7299 3.0636 48.8448 1.98899 37.4942C1.923 36.7964 1.8853 36.0893 1.8853 35.3729V35.0752V34.396V32.6934V1.80493H47.1889V27.2135V29.9674V31.4653V33.2051V35.5497C47.1889 36.0335 47.1607 36.5173 47.123 37.0011C46.284 48.5843 36.4899 57.7299 24.5371 57.7299Z" fill="#D8AE00"/>
<path fill-rule="evenodd" clip-rule="evenodd" d="M9.72797 13.6113C8.15375 13.6113 9.72797 16.5234 9.72797 16.5234C9.72797 16.5234 11.3022 13.6113 9.72797 13.6113Z" fill="#D8AE00"/>
<path fill-rule="evenodd" clip-rule="evenodd" d="M7.53192 13.5369C6.82493 13.4159 6.19336 13.9183 6.19336 15.1278C6.39132 14.8115 6.82493 14.2347 7.53192 14.3463C8.2389 14.4673 8.86105 13.9556 8.86105 12.7554C8.67252 13.0717 8.2389 13.6485 7.53192 13.5369Z" fill="#D8AE00"/>
<path fill-rule="evenodd" clip-rule="evenodd" d="M9.41699 13.0717C9.41699 13.2392 9.55839 13.3787 9.72807 13.3787C9.90717 13.3787 10.0486 13.2392 10.0486 13.0717C10.0486 12.8949 9.90717 12.7554 9.72807 12.7554C9.55839 12.7554 9.41699 12.8949 9.41699 13.0717Z" fill="#D8AE00"/>
<path fill-rule="evenodd" clip-rule="evenodd" d="M7.96514 11.8624C7.96514 10.3087 5.01465 11.8624 5.01465 11.8624C5.01465 11.8624 7.96514 13.4162 7.96514 11.8624Z" fill="#D8AE00"/>
<path fill-rule="evenodd" clip-rule="evenodd" d="M7.21111 9.69443C7.09799 10.3922 7.60702 11.0156 8.82304 11.0156C8.51196 10.8202 7.91809 10.3922 8.04064 9.69443C8.15376 8.99664 7.64473 8.37329 6.42871 8.37329C6.73978 8.56867 7.33365 8.99664 7.21111 9.69443Z" fill="#D8AE00"/>
<path fill-rule="evenodd" clip-rule="evenodd" d="M8.82332 11.8622C8.82332 11.6947 8.68192 11.5552 8.51225 11.5552C8.33314 11.5552 8.20117 11.6947 8.20117 11.8622C8.20117 12.039 8.33314 12.1785 8.51225 12.1785C8.68192 12.1785 8.82332 12.039 8.82332 11.8622Z" fill="#D8AE00"/>
<path fill-rule="evenodd" clip-rule="evenodd" d="M9.72797 10.1225C11.3022 10.1225 9.72797 7.21045 9.72797 7.21045C9.72797 7.21045 8.15375 10.1225 9.72797 10.1225Z" fill="#D8AE00"/>
<path fill-rule="evenodd" clip-rule="evenodd" d="M11.9338 10.1969C12.6408 10.3085 13.2629 9.80614 13.2629 8.60596C13.0744 8.91298 12.6408 9.49912 11.9338 9.37817C11.2268 9.26652 10.5952 9.76893 10.5952 10.9691C10.7932 10.6621 11.2268 10.076 11.9338 10.1969Z" fill="#D8AE00"/>
<path fill-rule="evenodd" clip-rule="evenodd" d="M10.0486 10.662C10.0486 10.4945 9.90717 10.355 9.72807 10.355C9.55839 10.355 9.41699 10.4945 9.41699 10.662C9.41699 10.8295 9.55839 10.969 9.72807 10.969C9.90717 10.969 10.0486 10.8295 10.0486 10.662Z" fill="#D8AE00"/>
<path fill-rule="evenodd" clip-rule="evenodd" d="M11.5005 11.8624C11.5005 13.4162 14.451 11.8624 14.451 11.8624C14.451 11.8624 11.5005 10.3087 11.5005 11.8624Z" fill="#D8AE00"/>
<path fill-rule="evenodd" clip-rule="evenodd" d="M13.0276 15.3605C12.7166 15.1652 12.1321 14.7372 12.2452 14.0394C12.3678 13.3416 11.8493 12.7183 10.6333 12.7183C10.9444 12.9136 11.5382 13.3416 11.4251 14.0394C11.3026 14.7372 11.8116 15.3605 13.0276 15.3605Z" fill="#D8AE00"/>
<path fill-rule="evenodd" clip-rule="evenodd" d="M10.6333 11.8622C10.6333 12.039 10.7747 12.1785 10.9444 12.1785C11.1235 12.1785 11.2649 12.039 11.2649 11.8622C11.2649 11.6947 11.1235 11.5552 10.9444 11.5552C10.7747 11.5552 10.6333 11.6947 10.6333 11.8622Z" fill="#D8AE00"/>
<path fill-rule="evenodd" clip-rule="evenodd" d="M10.3219 11.8622C10.3219 11.5459 10.0579 11.2854 9.728 11.2854C9.4075 11.2854 9.14355 11.5459 9.14355 11.8622C9.14355 12.1879 9.4075 12.4484 9.728 12.4484C10.0579 12.4484 10.3219 12.1879 10.3219 11.8622Z" fill="#D8AE00"/>
<path fill-rule="evenodd" clip-rule="evenodd" d="M25.3668 29.1208V23.7061H23.9811C23.9811 25.6878 23.4155 25.511 23.0762 26.5158C22.586 26.6181 21.8696 26.8321 21.1061 27.195C19.2585 28.0323 17.0621 29.7163 16.7793 32.5539C17.1281 32.3027 17.4674 31.9771 17.8162 31.6329C18.6552 30.8141 19.5224 29.9768 20.729 29.9768C21.0306 29.9768 21.3417 30.0326 21.6528 30.135C21.6716 30.1443 21.6999 30.1536 21.7188 30.1536C22.6237 29.6139 23.6229 29.1115 24.9803 29.1115C25.1123 29.1115 25.2348 29.1115 25.3668 29.1208Z" fill="#D8AE00"/>
<path fill-rule="evenodd" clip-rule="evenodd" d="M22.4255 22.8781C22.0956 22.8781 21.9354 22.8874 21.9636 23.2223C22.0391 23.9759 22.3596 25.3901 22.7272 26.032C23.1042 25.3901 23.4247 23.9759 23.4907 23.2223C23.5284 22.8874 23.3682 22.8781 23.0383 22.8781H23.01C22.8874 22.8222 22.8497 22.6734 22.8686 22.4687C23.1514 22.4687 23.3588 22.1524 23.3588 21.9198C23.3588 21.5104 23.076 21.3708 22.7272 21.3708C22.3784 21.3708 22.105 21.5104 22.105 21.9198C22.105 22.1524 22.3124 22.4687 22.5952 22.4687C22.6046 22.6734 22.5669 22.8222 22.4538 22.8781H22.4255Z" fill="#D8AE00"/>
<path fill-rule="evenodd" clip-rule="evenodd" d="M34.199 18.7656C34.199 20.3473 33.7277 20.4868 33.558 20.4868C33.5297 20.4868 33.5015 20.4775 33.5015 20.4775V22.6732C34.4064 22.2638 34.199 21.5754 34.7552 21.166C34.7552 21.166 34.7552 19.8635 34.7552 18.7656C34.7552 18.5423 34.6044 18.4214 34.463 18.4214C34.331 18.4214 34.199 18.533 34.199 18.7656Z" fill="#D8AE00"/>
<path fill-rule="evenodd" clip-rule="evenodd" d="M24.2355 6.94985C24.1318 6.94985 23.981 6.94055 23.849 6.92194C23.8207 6.91264 23.8019 6.91264 23.7736 6.90333V14.2998C19.4562 17.4724 22.5764 18.8866 23.7736 20.7473L23.717 22.8128L23.7076 23.0175L23.8019 23.0361L25.3666 23.3617C25.8097 22.3755 25.574 21.5475 26.6958 20.4124C26.6958 20.4124 26.5544 23.4268 27.6667 24.1804C28.0343 24.4316 28.5245 24.534 29.0618 24.534C30.9754 24.534 33.5017 23.2873 33.5017 23.2873L33.0209 21.9196L29.2692 22.8779C29.0524 22.0964 29.486 21.4916 28.6376 20.5427C28.9204 19.7891 29.2786 18.0213 28.2229 17.7329C26.9691 17.3887 25.1593 17.5282 25.1593 15.1279C25.1593 14.3743 26.0642 14.2905 26.0642 13.3415C26.0642 12.2437 25.2347 12.1041 25.2347 10.8016C25.2347 9.7782 25.9322 9.21997 25.9322 8.5408C25.9322 7.61972 25.2347 7.64764 25.2347 6.8196V6.72656C24.9896 6.91264 24.5277 6.94985 24.2355 6.94985Z" fill="#D8AE00"/>
<path fill-rule="evenodd" clip-rule="evenodd" d="M28.6375 13.6113C28.628 13.602 28.6092 13.5834 28.5998 13.5834C28.4395 13.416 28.2698 13.3508 28.0907 13.3508C27.7419 13.3508 27.4026 13.602 27.1764 13.8253C26.837 14.1603 26.1489 14.3649 26.2054 14.7836C26.262 15.193 26.8276 15.3977 27.2518 15.3977C27.8079 15.3977 28.0059 14.8487 28.5621 14.7092H28.5715C28.6375 14.6906 28.694 14.6347 28.7223 14.5417C28.7317 14.5324 28.7317 14.5138 28.7317 14.5045C28.76 14.3835 28.7694 14.2161 28.7506 14.0579V14.0207C28.7317 13.8346 28.6846 13.6672 28.6375 13.6113Z" fill="#D8AE00"/>
<path fill-rule="evenodd" clip-rule="evenodd" d="M30.0325 14.7093C30.0325 13.5463 28.9202 13.4067 28.9202 13.4067V13.4812C28.9202 13.6672 28.9108 13.8347 28.9014 13.9929C28.9108 14.0115 28.9108 14.0394 28.9014 14.058C28.9014 14.2069 28.8919 14.3464 28.8825 14.4767V14.5139C28.8731 14.6534 28.8636 14.7744 28.8542 14.8953C28.8354 15.221 28.8071 15.5094 28.7788 15.8071C28.7788 15.8071 30.0325 15.8071 30.0325 14.7093Z" fill="#D8AE00"/>
<path fill-rule="evenodd" clip-rule="evenodd" d="M27.7326 17.3237C27.9871 17.4726 28.2228 17.5284 28.4396 17.5284C29.1089 17.5284 29.5425 16.9423 29.5425 16.6352C29.5425 16.0212 28.8167 16.2724 28.4302 16.0863C28.383 16.0677 28.4113 15.9467 28.4679 15.7886C28.4679 15.7886 28.4679 15.7886 28.4679 15.7793C28.5244 15.6118 28.6093 15.4071 28.6753 15.2304V15.2211C28.6941 15.128 28.7224 15.0443 28.7224 14.9885H28.7318C28.7412 14.914 28.7318 14.8675 28.7035 14.8489C28.7035 14.8489 28.6941 14.8396 28.6753 14.8396C28.6658 14.8396 28.6658 14.8396 28.6564 14.8396C28.6281 14.8489 28.5999 14.8582 28.5527 14.8861C28.5527 14.8861 28.5527 14.8861 28.5433 14.8861C28.3548 14.9792 28.0531 15.2397 27.7986 15.556C27.7892 15.5653 27.7892 15.5653 27.7892 15.5653C27.3273 16.1328 27.0068 16.8957 27.7326 17.3237Z" fill="#D8AE00"/>
<path fill-rule="evenodd" clip-rule="evenodd" d="M21.332 30.3676C21.1152 30.3117 20.9173 30.2838 20.7287 30.2838C19.0791 30.2838 18.0705 32.1074 16.7508 32.9447C16.7225 32.9726 16.6942 32.9819 16.6659 33.0005C16.6471 33.0191 16.6282 33.0284 16.6094 33.0377C16.6471 33.0377 16.6848 33.0377 16.7225 33.0284C16.8073 33.0284 16.8827 33.0284 16.9582 33.0191C17.0901 33.0098 17.2127 33.0005 17.3352 32.9912C19.5033 32.8051 20.8324 32.3213 22.5952 32.3213C23.0288 32.3213 23.4813 32.3493 23.9809 32.4144C26.2715 31.8655 27.7326 32.2748 29.6839 31.8655C28.9109 31.605 28.6376 31.1212 27.3179 31.1119C26.7617 30.9723 26.6203 30.4699 26.2715 30.1536C26.0641 30.5722 25.4514 30.963 24.3108 30.963C23.6415 30.963 22.8026 30.8327 21.7374 30.4885C21.6714 30.4699 21.6148 30.442 21.5488 30.4234C21.4734 30.3955 21.398 30.3769 21.332 30.3676Z" fill="#D8AE00"/>
<path fill-rule="evenodd" clip-rule="evenodd" d="M11.4626 6.26133C14.1021 6.26133 15.3652 3.74932 17.9198 3.74932H18.0329C19.0792 3.74932 19.9936 4.24242 20.4555 5.31235C20.6063 5.6938 20.6723 5.81475 20.7854 6.34507H23.3212C23.3212 5.9357 23.4248 5.39608 23.4908 5.10767H21.483C21.3604 4.60526 20.5781 3.6935 20.201 3.39577C19.5977 2.93989 19.0227 2.61426 17.9763 2.61426C15.0259 2.61426 13.8758 5.74963 11.2835 5.74963H11.227C10.7085 5.74963 10.2372 5.21931 10.2372 4.83786C10.2372 4.34476 10.5577 4.09356 11.0479 4.09356C11.5852 4.10286 11.7454 4.67969 11.7454 5.06115C12.377 4.23311 11.6889 3.63767 10.9913 3.63767C10.3126 3.63767 9.71875 4.12147 9.71875 4.78204C9.71875 5.70311 10.4823 6.26133 11.4626 6.26133Z" fill="#D8AE00"/>
<path fill-rule="evenodd" clip-rule="evenodd" d="M25.4233 6.34507H28.2889C28.402 5.81475 28.468 5.6938 28.6188 5.31235C29.0807 4.24242 29.9951 3.74932 31.0414 3.74932H31.1546C33.7091 3.74932 34.9723 6.26133 37.6117 6.26133C38.592 6.26133 39.3556 5.70311 39.3556 4.78204C39.3556 4.12147 38.7617 3.63767 38.083 3.63767C37.3855 3.63767 36.6973 4.23311 37.3195 5.06115C37.3289 4.67969 37.4892 4.10286 38.017 4.09356C38.5166 4.09356 38.8371 4.34476 38.8371 4.83786C38.8371 5.21931 38.3658 5.74963 37.8474 5.74963H37.7908C35.1891 5.74963 34.0485 2.61426 31.098 2.61426C30.0517 2.61426 29.4766 2.93989 28.8733 3.39577C28.4963 3.6935 27.7139 4.60526 27.5913 5.10767H25.3667C25.4233 5.39608 25.5081 5.9357 25.4233 6.34507Z" fill="#D8AE00"/>
<path fill-rule="evenodd" clip-rule="evenodd" d="M23.7737 6.55921C23.8209 6.58712 23.868 6.60572 23.9151 6.61503C24 6.63364 24.1131 6.64294 24.2356 6.64294C24.5278 6.64294 24.8672 6.59642 25.018 6.49408C25.0557 6.46617 25.084 6.43826 25.0934 6.41035C25.1029 6.39174 25.1029 6.36383 25.1029 6.34522C25.1311 6.26149 25.1406 6.16845 25.1406 6.06611C25.1594 5.72187 25.0934 5.3125 25.0557 5.10782C25.0369 5.02408 25.0274 4.96826 25.0274 4.96826H23.8397C23.8397 4.96826 23.8303 5.01478 23.8114 5.10782L23.7737 5.25668C23.7172 5.5544 23.6323 6.00098 23.6323 6.34522C23.6323 6.40104 23.6606 6.44756 23.7077 6.49408C23.7172 6.52199 23.7454 6.5406 23.7737 6.55921Z" fill="#D8AE00"/>
<path fill-rule="evenodd" clip-rule="evenodd" d="M39.3461 16.5234C39.3461 16.5234 40.9204 13.6113 39.3461 13.6113C37.7719 13.6113 39.3461 16.5234 39.3461 16.5234Z" fill="#D8AE00"/>
<path fill-rule="evenodd" clip-rule="evenodd" d="M37.1402 14.3463C37.8472 14.4673 38.4787 13.9556 38.4787 12.7554C38.2808 13.0717 37.8472 13.6485 37.1402 13.5369C36.4332 13.4159 35.811 13.9183 35.811 15.1278C35.9996 14.8115 36.4332 14.2347 37.1402 14.3463Z" fill="#D8AE00"/>
<path fill-rule="evenodd" clip-rule="evenodd" d="M39.0254 13.0717C39.0254 13.2392 39.1668 13.3787 39.3459 13.3787C39.5156 13.3787 39.657 13.2392 39.657 13.0717C39.657 12.8949 39.5156 12.7554 39.3459 12.7554C39.1668 12.7554 39.0254 12.8949 39.0254 13.0717Z" fill="#D8AE00"/>
<path fill-rule="evenodd" clip-rule="evenodd" d="M37.574 11.8624C37.574 10.3087 34.6235 11.8624 34.6235 11.8624C34.6235 11.8624 37.574 13.4162 37.574 11.8624Z" fill="#D8AE00"/>
<path fill-rule="evenodd" clip-rule="evenodd" d="M36.0469 8.37329C36.3579 8.56867 36.9424 8.99664 36.8293 9.69443C36.7067 10.3922 37.2252 11.0156 38.4412 11.0156C38.1301 10.8202 37.5363 10.3922 37.6588 9.69443C37.7719 8.99664 37.2629 8.37329 36.0469 8.37329Z" fill="#D8AE00"/>
<path fill-rule="evenodd" clip-rule="evenodd" d="M37.8096 11.8622C37.8096 12.039 37.951 12.1785 38.1301 12.1785C38.2997 12.1785 38.4411 12.039 38.4411 11.8622C38.4411 11.6947 38.2997 11.5552 38.1301 11.5552C37.951 11.5552 37.8096 11.6947 37.8096 11.8622Z" fill="#D8AE00"/>
<path fill-rule="evenodd" clip-rule="evenodd" d="M39.3461 7.21045C39.3461 7.21045 37.7719 10.1225 39.3461 10.1225C40.9204 10.1225 39.3461 7.21045 39.3461 7.21045Z" fill="#D8AE00"/>
<path fill-rule="evenodd" clip-rule="evenodd" d="M41.5425 10.1969C42.2495 10.3085 42.8811 9.80614 42.8811 8.60596C42.6831 8.91298 42.2495 9.49912 41.5425 9.37817C40.8355 9.26652 40.2134 9.76893 40.2134 10.9691C40.4019 10.6621 40.8355 10.076 41.5425 10.1969Z" fill="#D8AE00"/>
<path fill-rule="evenodd" clip-rule="evenodd" d="M39.657 10.662C39.657 10.4945 39.5156 10.355 39.3459 10.355C39.1668 10.355 39.0254 10.4945 39.0254 10.662C39.0254 10.8295 39.1668 10.969 39.3459 10.969C39.5156 10.969 39.657 10.8295 39.657 10.662Z" fill="#D8AE00"/>
<path fill-rule="evenodd" clip-rule="evenodd" d="M41.1182 11.8624C41.1182 13.4162 44.0592 11.8624 44.0592 11.8624C44.0592 11.8624 41.1182 10.3087 41.1182 11.8624Z" fill="#D8AE00"/>
<path fill-rule="evenodd" clip-rule="evenodd" d="M42.6453 15.3605C42.3342 15.1652 41.7404 14.7372 41.8629 14.0394C41.976 13.3416 41.467 12.7183 40.251 12.7183C40.5621 12.9136 41.1559 13.3416 41.0334 14.0394C40.9203 14.7372 41.4293 15.3605 42.6453 15.3605Z" fill="#D8AE00"/>
<path fill-rule="evenodd" clip-rule="evenodd" d="M40.8731 11.8622C40.8731 11.6947 40.7412 11.5552 40.562 11.5552C40.3924 11.5552 40.251 11.6947 40.251 11.8622C40.251 12.039 40.3924 12.1785 40.562 12.1785C40.7412 12.1785 40.8731 12.039 40.8731 11.8622Z" fill="#D8AE00"/>
<path fill-rule="evenodd" clip-rule="evenodd" d="M38.7524 11.8622C38.7524 12.1879 39.0164 12.4484 39.3463 12.4484C39.6668 12.4484 39.9308 12.1879 39.9308 11.8622C39.9308 11.5459 39.6668 11.2854 39.3463 11.2854C39.0164 11.2854 38.7524 11.5459 38.7524 11.8622Z" fill="#D8AE00"/>
</g>
<defs>
<clipPath id="clip0_0_5951">
<rect width="499" height="60" fill="white"/>
</clipPath>
</defs>
</svg>
