<svg width="222" height="62" viewBox="0 0 222 62" fill="none" xmlns="http://www.w3.org/2000/svg">
<g clip-path="url(#clip0_0_3007)">
<path d="M63.9399 18.0357V10.5369H68.1502V11.3637H65.5406V18.0357H63.9399Z" fill="white"/>
<path d="M69.4599 17.1319C68.8681 16.4397 68.5674 15.4975 68.5674 14.2958C68.5674 13.094 68.8681 12.1519 69.4599 11.4597C70.0516 10.7675 70.8956 10.4214 71.9919 10.4214C73.0978 10.4214 73.9418 10.7675 74.5433 11.4693C75.1447 12.1615 75.4455 13.1133 75.4455 14.3054C75.4455 15.4975 75.1447 16.4397 74.5433 17.1319C73.9418 17.8241 73.0881 18.1702 71.9919 18.1702C70.8956 18.1606 70.0516 17.8145 69.4599 17.1319ZM73.2724 16.6223C73.5343 16.1417 73.6605 15.3629 73.6605 14.2958C73.6605 13.2383 73.5246 12.4595 73.2627 11.9788C73.0008 11.4981 72.5739 11.2482 71.9822 11.2482C71.4001 11.2482 70.983 11.4885 70.721 11.9788C70.4591 12.4595 70.333 13.2383 70.333 14.2958C70.333 15.3629 70.4591 16.1417 70.721 16.6223C70.9733 17.103 71.4001 17.3434 71.9919 17.3434C72.5836 17.3434 73.0105 17.103 73.2724 16.6223Z" fill="white"/>
<path d="M77.1821 17.1415C76.5806 16.4589 76.2896 15.5264 76.2896 14.3439C76.2896 13.5555 76.4254 12.8729 76.697 12.2769C76.9686 11.6808 77.3664 11.229 77.8805 10.9021C78.4044 10.5752 79.0156 10.4214 79.7334 10.4214C80.0924 10.4214 80.4416 10.4695 80.7909 10.556C81.1401 10.6425 81.4311 10.7386 81.6834 10.8444C81.9356 10.9502 82.0617 11.0078 82.0617 11.0078L81.8968 11.8539C81.8386 11.825 81.7125 11.7673 81.499 11.6712C81.2856 11.5847 81.0431 11.4981 80.7521 11.4116C80.461 11.3251 80.1894 11.2866 79.9275 11.2866C79.4909 11.2866 79.1417 11.3828 78.87 11.5751C78.5984 11.7673 78.3947 12.0846 78.2589 12.5172C78.1231 12.9595 78.0552 13.5459 78.0552 14.2862C78.0552 15.3725 78.2104 16.1417 78.5305 16.6031C78.8506 17.0646 79.3454 17.2953 80.0051 17.2953C80.3737 17.2953 80.7036 17.2184 80.9849 17.055C81.2662 16.9012 81.499 16.7281 81.6737 16.5358C81.8483 16.3435 81.9356 16.2378 81.9356 16.2186L82.4497 16.7762C82.4497 16.8146 82.343 16.9492 82.1393 17.1896C81.9356 17.4299 81.6349 17.651 81.2371 17.8529C80.8394 18.0548 80.3543 18.1606 79.7819 18.1606C78.6469 18.1606 77.7738 17.8241 77.1821 17.1415Z" fill="white"/>
<path d="M84.0406 18.0933C83.866 18.0548 83.7399 18.0068 83.6525 17.9587C83.5652 17.9106 83.507 17.8818 83.4876 17.8626L83.701 16.8916C83.7204 16.9108 83.7787 16.93 83.8563 16.9685C83.9339 17.0069 84.0406 17.0454 84.1861 17.0742C84.3316 17.1031 84.4771 17.1223 84.6518 17.1223C84.9428 17.1223 85.195 17.0646 85.3987 16.9589C85.6025 16.8531 85.7965 16.6416 85.9808 16.334L82.8571 10.5079H84.7391L86.786 14.6804H86.8248L88.2024 10.5079H89.2501L87.2322 15.6994C86.8927 16.5647 86.5144 17.18 86.0875 17.5645C85.6704 17.9491 85.1756 18.1318 84.6227 18.1318C84.4092 18.1606 84.2055 18.1414 84.0406 18.0933Z" fill="white"/>
<path d="M89.7739 17.1993H90.55C90.8798 16.5263 91.103 15.6899 91.2388 14.7093C91.3746 13.7286 91.4425 12.3346 91.4425 10.5272H95.808V17.1993H96.749L96.4677 20.045H95.5558L95.3036 18.0261H91.1612L90.6955 20.045H89.8903L89.7739 17.1993ZM94.2073 17.1993V11.3636H92.3932C92.3738 12.8442 92.2962 14.0267 92.1604 14.9112C92.0246 15.7956 91.8015 16.5551 91.5104 17.1993H94.2073Z" fill="white"/>
<path d="M97.2535 18.0357L99.7661 10.5369H101.551L103.899 18.0357H102.201L101.551 15.9399H98.9221L98.2334 18.0357H97.2535ZM99.1453 15.2092H101.318L100.28 11.6809H100.261L99.1453 15.2092Z" fill="white"/>
<path d="M105.005 10.5369H107.323C108.187 10.5369 108.856 10.7484 109.331 11.181C109.807 11.604 110.049 12.2385 110.049 13.0749C110.049 13.671 109.914 14.1709 109.652 14.5651C109.39 14.9593 109.05 15.2477 108.643 15.4207C108.235 15.6034 107.808 15.6899 107.362 15.6899H106.615V18.0357H105.005V10.5369ZM107.168 14.9593C107.556 14.9593 107.847 14.8247 108.032 14.5651C108.216 14.3055 108.313 13.8248 108.313 13.1518C108.313 12.4693 108.216 11.9886 108.032 11.7098C107.847 11.431 107.556 11.2964 107.168 11.2964H106.605V14.9689H107.168V14.9593Z" fill="white"/>
<path d="M111.631 17.1415C111.029 16.4589 110.738 15.5264 110.738 14.3439C110.738 13.5555 110.874 12.8729 111.145 12.2769C111.417 11.6808 111.815 11.229 112.329 10.9021C112.853 10.5752 113.464 10.4214 114.182 10.4214C114.541 10.4214 114.89 10.4695 115.239 10.556C115.589 10.6425 115.88 10.7386 116.132 10.8444C116.384 10.9502 116.51 11.0078 116.51 11.0078L116.345 11.8539C116.287 11.825 116.161 11.7673 115.948 11.6712C115.734 11.5847 115.492 11.4981 115.201 11.4116C114.91 11.3251 114.638 11.2866 114.376 11.2866C113.939 11.2866 113.59 11.3828 113.319 11.5751C113.047 11.7673 112.843 12.0846 112.707 12.5172C112.572 12.9595 112.504 13.5459 112.504 14.2862C112.504 15.3725 112.659 16.1417 112.979 16.6031C113.299 17.0646 113.794 17.2953 114.454 17.2953C114.822 17.2953 115.152 17.2184 115.433 17.055C115.715 16.9012 115.948 16.7281 116.122 16.5358C116.297 16.3435 116.384 16.2378 116.384 16.2186L116.898 16.7762C116.898 16.8146 116.792 16.9492 116.588 17.1896C116.384 17.4299 116.083 17.651 115.686 17.8529C115.288 18.0548 114.803 18.1606 114.23 18.1606C113.095 18.1606 112.222 17.8241 111.631 17.1415Z" fill="white"/>
<path d="M119.217 18.0357V11.3637H117.18V10.5369H122.864V11.3637H120.837V18.0357H119.217Z" fill="white"/>
<path d="M123.922 10.5369H126.231C126.832 10.5369 127.327 10.6234 127.725 10.8061C128.122 10.9887 128.423 11.2291 128.617 11.5175C128.811 11.8155 128.908 12.1328 128.908 12.4789C128.908 12.8634 128.802 13.1903 128.588 13.4595C128.375 13.7287 128.103 13.9498 127.783 14.1132C128.229 14.2478 128.578 14.4689 128.84 14.767C129.102 15.065 129.238 15.4303 129.238 15.863C129.238 16.5167 128.986 17.0359 128.491 17.43C127.996 17.8242 127.259 18.0165 126.299 18.0165H123.932V10.5369H123.922ZM126.483 13.8729C126.696 13.8729 126.9 13.7671 127.075 13.5652C127.249 13.3634 127.337 13.0365 127.337 12.575C127.337 12.1328 127.23 11.8059 127.026 11.5944C126.813 11.3829 126.541 11.2867 126.192 11.2867H125.542V13.8729H126.483ZM126.25 17.2858C126.667 17.2858 126.997 17.1608 127.24 16.9205C127.482 16.6801 127.599 16.3148 127.599 15.8149C127.599 14.9785 127.249 14.5555 126.561 14.5555H125.523V17.2762H126.25V17.2858Z" fill="white"/>
<path d="M130.548 18.0357V10.5369H135.088V11.3637H132.158V13.8344H134.739V14.642H132.158V17.1993H135.253V18.0261H130.548V18.0357Z" fill="white"/>
<path d="M136.64 18.0357V10.5369H138.25V13.8152H140.87V10.5369H142.48V18.0357H140.87V14.6228H138.25V18.0357H136.64Z" fill="white"/>
<path d="M144.265 18.0357V10.5369H145.876V13.8152H148.495V10.5369H150.105V18.0357H148.495V14.6228H145.876V18.0357H144.265Z" fill="white"/>
<path d="M151.89 10.5369H153.501V13.4114H154.044C154.994 13.4114 155.732 13.5941 156.246 13.969C156.76 14.344 157.012 14.892 157.012 15.6322C157.012 16.4013 156.77 16.9974 156.275 17.4108C155.78 17.8338 155.053 18.0357 154.092 18.0357H151.89V10.5369ZM154.053 17.2858C154.509 17.2858 154.839 17.1608 155.043 16.9109C155.247 16.6609 155.344 16.2475 155.344 15.6707C155.344 15.1035 155.237 14.6997 155.033 14.4786C154.83 14.2574 154.49 14.1421 154.044 14.1421H153.501V17.2954H154.053V17.2858ZM157.866 18.0357V10.5369H159.476V18.0357H157.866Z" fill="white"/>
<path d="M161.261 18.0356V10.5368H162.872V15.5072L162.794 16.2571H162.814L165.743 10.7868L165.85 10.5368H167.344V18.0356H165.734V13.1902L165.801 12.3634H165.792L162.872 17.7857L162.775 18.0356H161.261ZM162.765 9.46966C162.552 9.12356 162.455 8.82553 162.455 8.56596L163.667 8.46021V8.5948C163.658 8.61403 163.648 8.64287 163.638 8.68132C163.628 8.71978 163.619 8.76785 163.619 8.82553C163.619 8.95051 163.667 9.05627 163.774 9.14279C163.881 9.22932 164.046 9.27739 164.298 9.27739C164.55 9.27739 164.734 9.22932 164.831 9.14279C164.928 9.05627 164.987 8.95051 164.987 8.82553C164.987 8.76785 164.977 8.71978 164.967 8.68132C164.957 8.64287 164.948 8.61403 164.938 8.5948V8.46021L166.151 8.56596C166.151 8.82553 166.044 9.13318 165.831 9.46966C165.617 9.80615 165.103 9.9792 164.298 9.9792C163.493 9.9792 162.978 9.81576 162.765 9.46966Z" fill="white"/>
<path d="M172.098 18.0357V10.5368H173.708V14.0075L174.397 13.5075L176.618 10.5272H177.734L175.444 13.4595L178.277 18.0261H176.24L174.212 14.6612L173.708 15.0073V18.0261H172.098V18.0357Z" fill="white"/>
<path d="M179.8 17.1319C179.208 16.4397 178.908 15.4975 178.908 14.2958C178.908 13.094 179.208 12.1519 179.8 11.4597C180.392 10.7675 181.236 10.4214 182.332 10.4214C183.438 10.4214 184.282 10.7675 184.884 11.4693C185.485 12.1615 185.786 13.1133 185.786 14.3054C185.786 15.4975 185.485 16.4397 184.884 17.1319C184.282 17.8241 183.428 18.1702 182.332 18.1702C181.236 18.1606 180.392 17.8145 179.8 17.1319ZM183.622 16.6223C183.884 16.1417 184.01 15.3629 184.01 14.2958C184.01 13.2383 183.875 12.4595 183.613 11.9788C183.351 11.4981 182.924 11.2482 182.332 11.2482C181.75 11.2482 181.333 11.4885 181.071 11.9788C180.809 12.4595 180.683 13.2383 180.683 14.2958C180.683 15.3629 180.809 16.1417 181.071 16.6223C181.323 17.103 181.75 17.3434 182.342 17.3434C182.934 17.3434 183.361 17.103 183.622 16.6223Z" fill="white"/>
<path d="M187.105 18.0357L187.202 10.5369H189.142L191.257 16.0649H191.306L193.391 10.5369H195.196L195.273 18.0357H193.702L193.624 12.3635H193.585L191.48 18.0357H190.277L188.172 12.3635H188.133L188.095 18.0357H187.105Z" fill="white"/>
<path d="M197.068 18.0357V10.5369H198.679V15.5072L198.601 16.2571H198.62L201.55 10.7868L201.657 10.5369H203.151V18.0357H201.54V13.1903L201.608 12.3635H201.599L198.679 17.7857L198.581 18.0357H197.068Z" fill="white"/>
<path d="M206.245 18.0357V11.3637H204.208V10.5369H209.893V11.3637H207.865V18.0357H206.245Z" fill="white"/>
<path d="M210.95 18.0357V10.5369H215.491V11.3637H212.561V13.8344H215.141V14.642H212.561V17.1993H215.655V18.0261H210.95V18.0357Z" fill="white"/>
<path d="M218.352 18.0357V11.3637H216.315V10.5369H222V11.3637H219.973V18.0357H218.352Z" fill="white"/>
<path d="M63.9399 26.3036H66.2585C67.1219 26.3036 67.7913 26.5151 68.2666 26.9477C68.742 27.3707 68.9845 28.0052 68.9845 28.8417C68.9845 29.4377 68.8487 29.9376 68.5868 30.3318C68.3248 30.726 67.9853 31.0144 67.5779 31.1874C67.1704 31.3701 66.7436 31.4566 66.2973 31.4566H65.5503V33.8024H63.9399V26.3036ZM66.113 30.7164C66.501 30.7164 66.7921 30.5818 66.9764 30.3222C67.1607 30.053 67.2577 29.5819 67.2577 28.909C67.2577 28.2264 67.1607 27.7457 66.9764 27.4669C66.7921 27.1881 66.501 27.0535 66.113 27.0535H65.5503V30.726H66.113V30.7164Z" fill="white"/>
<path d="M70.1487 33.8024V26.3036H74.6888V27.1304H71.7591V29.6012H74.3396V30.4087H71.7591V32.966H74.8537V33.7928H70.1487V33.8024Z" fill="white"/>
<path d="M76.6679 32.9083C76.0664 32.2258 75.7754 31.2932 75.7754 30.1107C75.7754 29.3224 75.9112 28.6398 76.1828 28.0437C76.4545 27.4477 76.8522 26.9958 77.3664 26.6689C77.8902 26.3421 78.5014 26.1882 79.2193 26.1882C79.5782 26.1882 79.9275 26.2363 80.2767 26.3228C80.6259 26.4094 80.917 26.5055 81.1692 26.6112C81.4214 26.717 81.5475 26.7747 81.5475 26.7747L81.3826 27.6207C81.3244 27.5919 81.1983 27.5342 80.9849 27.438C80.7715 27.3515 80.5289 27.265 80.2379 27.1785C79.9469 27.0919 79.6752 27.0535 79.4133 27.0535C78.9768 27.0535 78.6275 27.1496 78.3559 27.3419C78.0842 27.5342 77.8805 27.8514 77.7447 28.2841C77.6089 28.7263 77.541 29.3127 77.541 30.053C77.541 31.1394 77.6962 31.9085 78.0163 32.37C78.3365 32.8314 78.8312 33.0622 79.4909 33.0622C79.8596 33.0622 80.1894 32.9853 80.4707 32.8218C80.7521 32.668 80.9849 32.4949 81.1595 32.3027C81.3341 32.1104 81.4214 32.0046 81.4214 31.9854L81.9356 32.543C81.9356 32.5815 81.8289 32.7161 81.6252 32.9564C81.4214 33.1968 81.1207 33.4179 80.723 33.6198C80.3252 33.8217 79.8402 33.9274 79.2678 33.9274C78.1328 33.9274 77.2694 33.5909 76.6679 32.9083Z" fill="white"/>
<path d="M82.9541 33.8024V26.3036H88.6098V33.8024H86.9995V27.1304H84.5548V33.8024H82.9541Z" fill="white"/>
<path d="M90.9769 33.8601C90.8023 33.8217 90.6761 33.7736 90.5888 33.7255C90.5015 33.6775 90.4433 33.6486 90.4239 33.6294L90.6373 32.6584C90.6567 32.6776 90.7149 32.6969 90.7925 32.7353C90.8702 32.7738 90.9769 32.8122 91.1224 32.8411C91.2679 32.8699 91.4134 32.8891 91.588 32.8891C91.8791 32.8891 92.1313 32.8315 92.335 32.7257C92.5387 32.62 92.7328 32.4084 92.9171 32.1008L89.7933 26.2748H91.6754L93.7223 30.4472H93.7611L95.1386 26.2748H96.2058L94.1879 31.4663C93.8484 32.3315 93.4701 32.9468 93.0432 33.3314C92.6261 33.7159 92.1313 33.8986 91.5783 33.8986C91.3455 33.9274 91.1418 33.9082 90.9769 33.8601Z" fill="white"/>
<path d="M97.3408 26.3036H101.59V27.1304H98.9609V29.1685H99.446C100.406 29.1685 101.153 29.3512 101.677 29.7261C102.201 30.0915 102.463 30.6491 102.463 31.3893C102.463 32.1488 102.211 32.7449 101.706 33.1679C101.202 33.5909 100.465 33.8024 99.4945 33.8024H97.3408V26.3036ZM99.4751 33.0525C99.9407 33.0525 100.28 32.9372 100.484 32.6968C100.688 32.4565 100.794 32.0431 100.794 31.4374C100.794 30.851 100.688 30.4472 100.474 30.2357C100.261 30.0146 99.9213 29.9088 99.4557 29.9088H98.9512V33.0622H99.4751V33.0525Z" fill="white"/>
<path d="M103.336 33.8793C103.22 33.8505 103.161 33.8313 103.161 33.8313L103.22 32.8122C103.239 32.8218 103.288 32.8314 103.356 32.8506C103.423 32.8699 103.491 32.8699 103.569 32.8699C104.112 32.8699 104.51 32.3603 104.772 31.3317C105.034 30.303 105.16 28.6302 105.16 26.3036H109.293V33.8024H107.682V27.1304H106.072C106.062 29.3993 105.858 31.1009 105.47 32.2257C105.073 33.3506 104.51 33.9178 103.782 33.9178C103.608 33.9178 103.453 33.9082 103.336 33.8793Z" fill="white"/>
<path d="M111.087 33.8024V26.3036H112.698V31.274L112.62 32.0239H112.639L115.569 26.5536L115.676 26.3036H117.17V33.8024H115.559V28.957L115.627 28.1302H115.618L112.698 33.5525L112.601 33.8024H111.087Z" fill="white"/>
<path d="M118.965 33.8024V26.3036H120.575V29.7742L121.264 29.2743L123.485 26.2939H124.601L122.311 29.2262L125.144 33.7928H123.107L121.079 30.4279L120.575 30.774V33.7928H118.965V33.8024Z" fill="white"/>
<path d="M126.25 33.8024V26.3036H127.861V31.274L127.783 32.0239H127.802L130.732 26.5536L130.839 26.3036H132.333V33.8024H130.722V28.957L130.79 28.1302H130.781L127.861 33.5525L127.763 33.8024H126.25Z" fill="white"/>
<path d="M136.407 33.8024L138.92 26.3036H140.705L143.052 33.8024H141.355L140.705 31.7066H138.076L137.387 33.8024H136.407ZM138.309 30.9759H140.482L139.444 27.4476H139.424L138.309 30.9759Z" fill="white"/>
<path d="M144.158 26.3036H148.407V27.1304H145.778V29.1685H146.263C147.224 29.1685 147.971 29.3512 148.495 29.7261C149.019 30.0915 149.281 30.6491 149.281 31.3893C149.281 32.1488 149.028 32.7449 148.524 33.1679C148.019 33.5909 147.282 33.8024 146.312 33.8024H144.158V26.3036ZM146.293 33.0525C146.758 33.0525 147.098 32.9372 147.301 32.6968C147.505 32.4565 147.612 32.0431 147.612 31.4374C147.612 30.851 147.505 30.4472 147.292 30.2357C147.078 30.0146 146.739 29.9088 146.273 29.9088H145.769V33.0622H146.293V33.0525Z" fill="white"/>
<path d="M149.795 33.8024L152.142 30.1588L149.892 26.3036H151.91L153.306 28.9955H153.345L154.965 26.3036H156.11L153.898 29.7646L156.382 33.8024H154.383L152.763 30.9375H152.724L151.017 33.8024H149.795Z" fill="white"/>
<path d="M156.692 33.8024L159.205 26.3036H160.99L163.337 33.8024H161.64L160.99 31.7066H158.361L157.672 33.8024H156.692ZM158.584 30.9759H160.757L159.719 27.4476H159.699L158.584 30.9759Z" fill="white"/>
<path d="M164.744 33.6678C164.375 33.4947 164.104 33.3025 163.939 33.1006C163.774 32.8987 163.687 32.7737 163.687 32.7352L164.172 32.1392C164.172 32.1584 164.249 32.2545 164.395 32.418C164.55 32.5814 164.763 32.7352 165.035 32.8698C165.307 33.0044 165.637 33.0813 166.005 33.0813C166.849 33.0813 167.276 32.6103 167.276 31.6777C167.276 31.1874 167.189 30.8413 167.024 30.649C166.859 30.4567 166.607 30.3606 166.257 30.3606L165.142 30.4567V29.5723L166.364 29.678C166.578 29.6684 166.752 29.553 166.907 29.3223C167.063 29.0916 167.131 28.7359 167.131 28.2648C167.131 27.8129 167.043 27.486 166.878 27.3034C166.704 27.1111 166.422 27.0246 166.025 27.0246C165.811 27.0246 165.578 27.063 165.336 27.1303C165.093 27.2072 164.89 27.2842 164.715 27.3611C164.54 27.438 164.434 27.4957 164.385 27.5149L164.23 26.7265C164.23 26.7169 164.346 26.6689 164.569 26.5727C164.793 26.4766 165.064 26.3997 165.375 26.3228C165.685 26.2459 166.005 26.2074 166.325 26.2074C167.121 26.2074 167.742 26.3804 168.178 26.7362C168.615 27.0919 168.828 27.5726 168.828 28.1782C168.828 28.6109 168.712 28.9666 168.489 29.255C168.256 29.5434 167.975 29.7742 167.625 29.9568C168.586 30.1875 169.071 30.774 169.071 31.7065C169.071 32.1488 168.954 32.5333 168.712 32.8698C168.469 33.2063 168.13 33.4755 167.693 33.6582C167.257 33.8504 166.752 33.937 166.199 33.937C165.607 33.9274 165.122 33.8408 164.744 33.6678Z" fill="white"/>
<path d="M170.39 33.8024V26.3036H172.001V31.274L171.923 32.0239H171.942L174.872 26.5536L174.979 26.3036H176.473V33.8024H174.862V28.957L174.93 28.1302H174.921L172.001 33.5525L171.904 33.8024H170.39Z" fill="white"/>
<path d="M179.354 30.7068C178.937 30.5433 178.597 30.2934 178.335 29.9473C178.073 29.6012 177.947 29.1685 177.947 28.659C177.947 27.8995 178.18 27.313 178.646 26.9093C179.111 26.5055 179.713 26.3036 180.45 26.3036H183.196V33.8024H181.575V30.9086H180.712L179.432 33.8024H177.782L179.354 30.7068ZM181.575 30.1107V27.0631H180.508C180.217 27.0631 179.985 27.1977 179.82 27.4573C179.655 27.7168 179.567 28.111 179.567 28.6205C179.567 29.1205 179.655 29.4954 179.82 29.7357C179.985 29.9857 180.217 30.1011 180.528 30.1011H181.575V30.1107Z" fill="white"/>
<path d="M63.9399 49.5693V42.0704H69.5957V49.5693H67.9853V42.8972H65.5406V49.5693H63.9399Z" fill="white"/>
<path d="M71.8075 48.6655C71.2158 47.9733 70.915 47.0311 70.915 45.8294C70.915 44.6276 71.2158 43.6855 71.8075 42.9933C72.3993 42.3011 73.2433 41.955 74.3395 41.955C75.4455 41.955 76.2895 42.3011 76.8909 43.0029C77.4924 43.6951 77.7931 44.6468 77.7931 45.839C77.7931 47.0311 77.4924 47.9733 76.8909 48.6655C76.2895 49.3577 75.4358 49.7038 74.3395 49.7038C73.2433 49.6941 72.3993 49.348 71.8075 48.6655ZM75.6298 48.1559C75.8917 47.6752 76.0178 46.8965 76.0178 45.8294C76.0178 44.7718 75.882 43.9931 75.6201 43.5124C75.3581 43.0317 74.9313 42.7818 74.3395 42.7818C73.7575 42.7818 73.3403 43.0221 73.0784 43.5124C72.8165 43.9931 72.6903 44.7718 72.6903 45.8294C72.6903 46.8965 72.8165 47.6752 73.0784 48.1559C73.3306 48.6366 73.7575 48.877 74.3492 48.877C74.941 48.877 75.3678 48.6366 75.6298 48.1559Z" fill="white"/>
<path d="M82.4982 48.6751C81.8967 47.9925 81.6057 47.0599 81.6057 45.8774C81.6057 45.0891 81.7415 44.4065 82.0132 43.8104C82.2848 43.2144 82.6825 42.7625 83.1967 42.4357C83.7206 42.1088 84.3317 41.955 85.0496 41.955C85.4085 41.955 85.7578 42.003 86.107 42.0895C86.4563 42.1761 86.7473 42.2722 86.9995 42.378C87.2518 42.4837 87.3779 42.5414 87.3779 42.5414L87.2129 43.3874C87.1547 43.3586 87.0286 43.3009 86.8152 43.2048C86.6018 43.1182 86.3593 43.0317 86.0682 42.9452C85.7772 42.8587 85.5056 42.8202 85.2436 42.8202C84.8071 42.8202 84.4578 42.9163 84.1862 43.1086C83.9146 43.3009 83.7109 43.6182 83.575 44.0508C83.4392 44.493 83.3713 45.0795 83.3713 45.8197C83.3713 46.9061 83.5265 47.6752 83.8467 48.1367C84.1668 48.5982 84.6616 48.8289 85.3212 48.8289C85.6899 48.8289 86.0197 48.752 86.301 48.5885C86.5824 48.4347 86.8152 48.2617 86.9898 48.0694C87.1644 47.8771 87.2518 47.7714 87.2518 47.7521L87.7659 48.3097C87.7659 48.3482 87.6592 48.4828 87.4555 48.7231C87.2518 48.9635 86.951 49.1846 86.5533 49.3865C86.1555 49.5884 85.6705 49.6941 85.0981 49.6941C83.9631 49.6941 83.0997 49.3577 82.4982 48.6751Z" fill="white"/>
<path d="M90.0941 49.5693V42.8972H88.0569V42.0704H93.7417V42.8972H91.7142V49.5693H90.0941Z" fill="white"/>
<path d="M94.1201 49.5693L96.6327 42.0704H98.4177L100.765 49.5693H99.0677L98.4177 47.4734H95.7887L95.0999 49.5693H94.1201ZM96.0118 46.7428H98.1849L97.1469 43.2145H97.1275L96.0118 46.7428Z" fill="white"/>
<path d="M103.171 49.5693V42.8972H101.134V42.0704H106.819V42.8972H104.791V49.5693H103.171Z" fill="white"/>
<path d="M107.876 49.5693V42.0704H109.487V47.0408L109.409 47.7907H109.428L112.358 42.3204L112.465 42.0704H113.959V49.5693H112.348V44.7239L112.416 43.8971H112.407L109.487 49.3193L109.39 49.5693H107.876Z" fill="white"/>
<path d="M116.171 48.6751C115.569 47.9925 115.278 47.0599 115.278 45.8774C115.278 45.0891 115.414 44.4065 115.686 43.8104C115.957 43.2144 116.355 42.7625 116.869 42.4357C117.393 42.1088 118.004 41.955 118.722 41.955C119.081 41.955 119.43 42.003 119.78 42.0895C120.129 42.1761 120.42 42.2722 120.672 42.378C120.924 42.4837 121.05 42.5414 121.05 42.5414L120.885 43.3874C120.827 43.3586 120.701 43.3009 120.488 43.2048C120.274 43.1182 120.032 43.0317 119.741 42.9452C119.45 42.8587 119.178 42.8202 118.916 42.8202C118.48 42.8202 118.13 42.9163 117.859 43.1086C117.587 43.3009 117.383 43.6182 117.248 44.0508C117.112 44.493 117.044 45.0795 117.044 45.8197C117.044 46.9061 117.199 47.6752 117.519 48.1367C117.839 48.5982 118.334 48.8289 118.994 48.8289C119.362 48.8289 119.692 48.752 119.974 48.5885C120.255 48.4347 120.488 48.2617 120.662 48.0694C120.837 47.8771 120.924 47.7714 120.924 47.7521L121.438 48.3097C121.438 48.3482 121.332 48.4828 121.128 48.7231C120.924 48.9635 120.624 49.1846 120.226 49.3865C119.828 49.5884 119.343 49.6941 118.771 49.6941C117.636 49.6941 116.762 49.3577 116.171 48.6751Z" fill="white"/>
<path d="M123.757 49.5693V42.8972H121.72V42.0704H127.405V42.8972H125.377V49.5693H123.757Z" fill="white"/>
<path d="M128.462 49.5693V42.0704H130.072V47.0408L129.995 47.7907H130.014L132.944 42.3204L133.051 42.0704H134.545V49.5693H132.934V44.7239L133.002 43.8971H132.992L130.072 49.3193L129.975 49.5693H128.462Z" fill="white"/>
<path d="M136.33 49.5692V42.0704H137.94V45.541L138.629 45.0411L140.85 42.0608H141.966L139.676 44.993L142.509 49.5596H140.472L138.444 46.1948L137.94 46.5409V49.5596H136.33V49.5692Z" fill="white"/>
<path d="M143.615 49.5693V42.0704H148.155V42.8972H145.225V45.368H147.806V46.1756H145.225V48.7329H148.32V49.5597H143.615V49.5693Z" fill="white"/>
<path fill-rule="evenodd" clip-rule="evenodd" d="M25.2519 49.2328C22.3901 49.2328 25.2519 54.5493 25.2519 54.5493C25.2519 54.5493 28.1137 49.2328 25.2519 49.2328Z" fill="#D8AE00"/>
<path fill-rule="evenodd" clip-rule="evenodd" d="M21.2455 49.0982C19.9553 48.8867 18.8105 49.8096 18.8105 52.0016C19.1695 51.4344 19.9553 50.3672 21.2455 50.5883C22.5358 50.7998 23.6805 49.8769 23.6805 47.6849C23.3216 48.2425 22.5358 49.3097 21.2455 49.0982Z" fill="#D8AE00"/>
<path fill-rule="evenodd" clip-rule="evenodd" d="M24.6797 48.2425C24.6797 48.5598 24.9319 48.8097 25.2521 48.8097C25.5722 48.8097 25.8244 48.5598 25.8244 48.2425C25.8244 47.9253 25.5722 47.6753 25.2521 47.6753C24.9319 47.6753 24.6797 47.9349 24.6797 48.2425Z" fill="#D8AE00"/>
<path fill-rule="evenodd" clip-rule="evenodd" d="M22.0312 46.0505C22.0312 43.2144 16.6665 46.0505 16.6665 46.0505C16.6665 46.0505 22.0312 48.877 22.0312 46.0505Z" fill="#D8AE00"/>
<path fill-rule="evenodd" clip-rule="evenodd" d="M19.2471 39.667C19.8194 40.0227 20.8963 40.8014 20.6731 42.0801C20.4597 43.3587 21.391 44.4932 23.6029 44.4932C23.0305 44.1375 21.9537 43.3587 22.1768 42.0801C22.3902 40.8014 21.4589 39.667 19.2471 39.667Z" fill="#D8AE00"/>
<path fill-rule="evenodd" clip-rule="evenodd" d="M22.458 46.0505C22.458 46.3678 22.7102 46.6177 23.0304 46.6177C23.3505 46.6177 23.6027 46.3678 23.6027 46.0505C23.6027 45.7333 23.3505 45.4833 23.0304 45.4833C22.7199 45.4737 22.458 45.7333 22.458 46.0505Z" fill="#D8AE00"/>
<path fill-rule="evenodd" clip-rule="evenodd" d="M25.2519 42.8587C28.1137 42.8587 25.2519 37.5422 25.2519 37.5422C25.2519 37.5422 22.3901 42.8587 25.2519 42.8587Z" fill="#D8AE00"/>
<path fill-rule="evenodd" clip-rule="evenodd" d="M29.2585 42.9934C30.5487 43.2049 31.6934 42.2819 31.6934 40.09C31.3345 40.6572 30.5487 41.7243 29.2585 41.5032C27.9682 41.2917 26.8235 42.2146 26.8235 44.4066C27.1824 43.849 27.9682 42.7819 29.2585 42.9934Z" fill="#D8AE00"/>
<path fill-rule="evenodd" clip-rule="evenodd" d="M25.8244 43.849C25.8244 43.5317 25.5722 43.2817 25.2521 43.2817C24.9319 43.2817 24.6797 43.5317 24.6797 43.849C24.6797 44.1662 24.9319 44.4162 25.2521 44.4162C25.5722 44.4162 25.8244 44.1566 25.8244 43.849Z" fill="#D8AE00"/>
<path fill-rule="evenodd" clip-rule="evenodd" d="M28.4727 46.0505C28.4727 48.8866 33.8374 46.0505 33.8374 46.0505C33.8374 46.0505 28.4727 43.2144 28.4727 46.0505Z" fill="#D8AE00"/>
<path fill-rule="evenodd" clip-rule="evenodd" d="M29.8309 50.0211C30.0443 48.7425 29.113 47.608 26.9011 47.608C27.4735 47.9637 28.5503 48.7425 28.3369 50.0211C28.1235 51.2998 29.0548 52.4342 31.2666 52.4342C30.6846 52.0689 29.6174 51.2902 29.8309 50.0211Z" fill="#D8AE00"/>
<path fill-rule="evenodd" clip-rule="evenodd" d="M26.9011 46.0505C26.9011 46.3678 27.1534 46.6177 27.4735 46.6177C27.7936 46.6177 28.0459 46.3678 28.0459 46.0505C28.0459 45.7333 27.7936 45.4833 27.4735 45.4833C27.1534 45.4737 26.9011 45.7333 26.9011 46.0505Z" fill="#D8AE00"/>
<path fill-rule="evenodd" clip-rule="evenodd" d="M24.175 46.0505C24.175 46.637 24.6601 47.1177 25.2519 47.1177C25.8436 47.1177 26.3287 46.637 26.3287 46.0505C26.3287 45.4641 25.8436 44.9834 25.2519 44.9834C24.6601 44.9834 24.175 45.4545 24.175 46.0505Z" fill="#D8AE00"/>
<path fill-rule="evenodd" clip-rule="evenodd" d="M44.3145 28.9474C43.8004 28.6782 43.2668 28.3898 42.5683 28.3898C41.8796 28.3994 41.3169 28.6878 40.7833 28.9666C40.2304 29.255 39.6677 29.5531 38.9207 29.5819C38.6297 29.0627 37.0581 26.5343 33.8373 26.5343C31.7516 26.5343 30.277 27.4476 28.9868 28.2552C28.1428 28.7839 27.3279 29.2839 26.4257 29.4954V30.0914L26.0862 30.4087C25.96 30.3991 25.8339 30.3991 25.7078 30.3991C24.5146 30.3991 23.6027 30.8125 22.7587 31.2836C23.6124 31.5431 24.3691 31.6777 25.019 31.6777C26.319 31.6777 26.6779 31.1682 26.7555 31.0144L27.26 30.9278C27.3958 31.0528 27.5025 31.197 27.5995 31.3412C27.7936 31.6008 27.9197 31.7642 28.1622 31.8315C29.142 31.8412 29.6174 32.1103 30.0442 32.3411C30.2382 32.4468 30.4226 32.5526 30.6554 32.6295L30.6166 33.2352C29.6562 33.4467 28.8316 33.4563 27.9585 33.4755C26.9884 33.4948 25.9891 33.5044 24.7571 33.8024L24.631 33.812C24.1556 33.7447 23.7094 33.7159 23.2534 33.7159C22.2833 33.7159 21.4587 33.8601 20.4983 34.0331C19.5573 34.1966 18.4902 34.3888 17.1126 34.4561L17.0059 34.11L16.9186 34.0524C16.9186 33.9851 16.938 33.937 16.938 33.8697V33.8601C17.1417 30.7644 19.3439 28.8609 21.4102 27.8706C21.1095 27.6399 20.7991 27.3899 20.4789 27.1207C20.5371 26.0248 20.5953 24.0924 18.7715 22.583C18.8103 22.5061 18.9267 22.4388 19.2857 22.4388C19.3827 22.4388 19.7998 22.458 19.9066 22.458L20.0327 22.4484L20.1879 22.285L20.1782 22.1215C20.1588 21.9004 20.1394 21.7081 20.2461 21.5927C20.3722 21.4582 20.6535 21.3909 21.0998 21.3909L21.2647 21.2274V19.968L21.0998 19.8046H8.94431L8.8182 19.8622L8.69208 20.0065C6.78097 22.1023 4.82134 24.2654 4.77284 27.4572C4.75344 27.6207 4.4139 27.7649 4.13257 27.8899C3.76392 28.0533 3.41469 28.2071 3.34678 28.4955L3.50199 28.6878C4.91836 28.6686 5.98548 28.6205 7.00409 28.5821C8.34284 28.534 9.60399 28.4763 11.4472 28.4763L11.6024 28.2936C11.5248 27.7456 11.0203 26.8227 10.089 26.765C9.15774 26.3036 8.90551 25.8421 8.97342 25.5729C9.03162 25.3133 9.37116 25.1307 9.80771 25.1307C10.6323 25.1307 12.1554 25.8421 12.6986 28.4571C10.3607 29.9665 10.7099 31.8123 11.0689 33.7639L11.0883 33.8697C9.40997 33.1583 7.916 32.8218 6.40262 32.8218C5.03477 32.8218 3.67661 33.091 2.26025 33.6486V35.3983C3.47289 34.9176 4.56912 34.6869 5.65564 34.6869C6.1698 34.6869 6.64515 34.7349 7.0914 34.8119C4.58852 34.8792 3.34678 35.456 2.26025 36.0617V36.552C2.26025 37.2153 2.28936 37.8787 2.34756 38.5324C4.22958 37.1865 5.91757 36.5135 7.40184 36.5135C9.42937 36.5135 10.6032 37.7537 11.3114 38.6959L11.4472 38.7632H16.8119L16.938 38.6863C19.0723 35.6002 22.0796 33.8985 25.4265 33.8985C28.8995 33.8985 32.2852 35.8117 33.4784 38.4555L33.6239 38.5517L38.7073 38.5324C39.0468 38.3402 39.3864 38.1479 39.7162 37.9556C40.9385 37.2249 42.1027 36.5424 43.6743 36.5424C44.9839 36.5424 46.4682 37.0423 48.1853 38.0517C48.2241 37.5518 48.2435 37.0519 48.2435 36.552V36.5039C47.5547 36.0232 46.7495 35.7059 46.051 35.4368C45.6145 35.2637 45.2167 35.1099 44.916 34.9368C45.1876 34.908 45.469 34.8888 45.7697 34.8599C46.5652 34.7926 47.4286 34.7253 48.2435 34.4369V32.6872C47.2637 33.1775 46.3615 33.4082 45.4399 33.4082C44.3824 33.4082 43.325 33.091 42.2191 32.4372L42.0445 32.4468C41.6855 32.6872 41.3654 32.9564 41.0453 33.2159C40.2401 33.8697 39.4737 34.4946 38.2416 34.8215C38.8334 33.7447 39.1147 32.5237 39.0856 31.1009L48.2435 30.9759V28.3802C47.3122 29.1204 46.5458 29.4665 45.857 29.4665C45.2749 29.4665 44.8093 29.2166 44.3145 28.9474Z" fill="#D8AE00"/>
<path fill-rule="evenodd" clip-rule="evenodd" d="M0 0V36.975C0 50.7902 11.3018 62 25.252 62C39.2022 62 50.5039 50.7902 50.5039 36.975V0H0ZM25.252 59.6542C13.1256 59.6542 3.15286 50.4729 2.04693 38.744C1.97902 38.0229 1.94022 37.2923 1.94022 36.552V36.2444V35.5426V33.7832V1.8651H48.5637V28.1206V30.9664V32.5142V34.312V36.7347C48.5637 37.2346 48.5346 37.7345 48.4958 38.2345C47.6324 50.2038 37.553 59.6542 25.252 59.6542Z" fill="#D8AE00"/>
<path fill-rule="evenodd" clip-rule="evenodd" d="M10.0115 14.0652C8.39146 14.0652 10.0115 17.0743 10.0115 17.0743C10.0115 17.0743 11.6316 14.0652 10.0115 14.0652Z" fill="#D8AE00"/>
<path fill-rule="evenodd" clip-rule="evenodd" d="M7.75109 13.9882C7.02351 13.8633 6.37354 14.3824 6.37354 15.6322C6.57726 15.3053 7.02351 14.7093 7.75109 14.8246C8.47867 14.9496 9.11895 14.4209 9.11895 13.1807C8.92492 13.5075 8.47867 14.1036 7.75109 13.9882Z" fill="#D8AE00"/>
<path fill-rule="evenodd" clip-rule="evenodd" d="M9.69141 13.5075C9.69141 13.6806 9.83692 13.8248 10.0115 13.8248C10.1959 13.8248 10.3414 13.6806 10.3414 13.5075C10.3414 13.3249 10.1959 13.1807 10.0115 13.1807C9.83692 13.1807 9.69141 13.3249 9.69141 13.5075Z" fill="#D8AE00"/>
<path fill-rule="evenodd" clip-rule="evenodd" d="M8.19733 12.2578C8.19733 10.6522 5.16089 12.2578 5.16089 12.2578C5.16089 12.2578 8.19733 13.8633 8.19733 12.2578Z" fill="#D8AE00"/>
<path fill-rule="evenodd" clip-rule="evenodd" d="M7.4214 10.0176C7.30499 10.7387 7.82885 11.3828 9.08029 11.3828C8.76015 11.1809 8.14898 10.7387 8.2751 10.0176C8.39151 9.2966 7.86765 8.65247 6.61621 8.65247C6.93635 8.85436 7.54752 9.2966 7.4214 10.0176Z" fill="#D8AE00"/>
<path fill-rule="evenodd" clip-rule="evenodd" d="M9.08021 12.2577C9.08021 12.0846 8.9347 11.9404 8.76008 11.9404C8.57576 11.9404 8.43994 12.0846 8.43994 12.2577C8.43994 12.4404 8.57576 12.5846 8.76008 12.5846C8.9347 12.5846 9.08021 12.4404 9.08021 12.2577Z" fill="#D8AE00"/>
<path fill-rule="evenodd" clip-rule="evenodd" d="M10.0115 10.46C11.6316 10.46 10.0115 7.45081 10.0115 7.45081C10.0115 7.45081 8.39146 10.46 10.0115 10.46Z" fill="#D8AE00"/>
<path fill-rule="evenodd" clip-rule="evenodd" d="M12.2816 10.5368C13.0092 10.6522 13.6495 10.133 13.6495 8.89282C13.4554 9.21008 13.0092 9.81576 12.2816 9.69078C11.554 9.57541 10.9041 10.0946 10.9041 11.3348C11.1078 11.0175 11.554 10.4118 12.2816 10.5368Z" fill="#D8AE00"/>
<path fill-rule="evenodd" clip-rule="evenodd" d="M10.3414 11.0176C10.3414 10.8445 10.1959 10.7003 10.0115 10.7003C9.83692 10.7003 9.69141 10.8445 9.69141 11.0176C9.69141 11.1906 9.83692 11.3348 10.0115 11.3348C10.1959 11.3348 10.3414 11.1906 10.3414 11.0176Z" fill="#D8AE00"/>
<path fill-rule="evenodd" clip-rule="evenodd" d="M11.8354 12.2578C11.8354 13.8633 14.8719 12.2578 14.8719 12.2578C14.8719 12.2578 11.8354 10.6522 11.8354 12.2578Z" fill="#D8AE00"/>
<path fill-rule="evenodd" clip-rule="evenodd" d="M13.407 15.8726C13.0868 15.6707 12.4853 15.2284 12.6018 14.5074C12.7279 13.7863 12.1943 13.1422 10.9429 13.1422C11.263 13.3441 11.8742 13.7863 11.7578 14.5074C11.6316 15.2284 12.1555 15.8726 13.407 15.8726Z" fill="#D8AE00"/>
<path fill-rule="evenodd" clip-rule="evenodd" d="M10.9429 12.2577C10.9429 12.4404 11.0884 12.5846 11.263 12.5846C11.4473 12.5846 11.5928 12.4404 11.5928 12.2577C11.5928 12.0846 11.4473 11.9404 11.263 11.9404C11.0884 11.9404 10.9429 12.0846 10.9429 12.2577Z" fill="#D8AE00"/>
<path fill-rule="evenodd" clip-rule="evenodd" d="M10.6228 12.2577C10.6228 11.9308 10.3512 11.6616 10.0116 11.6616C9.68179 11.6616 9.41016 11.9308 9.41016 12.2577C9.41016 12.5942 9.68179 12.8634 10.0116 12.8634C10.3512 12.8634 10.6228 12.5942 10.6228 12.2577Z" fill="#D8AE00"/>
<path fill-rule="evenodd" clip-rule="evenodd" d="M26.1058 30.0915V24.4962H24.6797C24.6797 26.544 24.0976 26.3613 23.7484 27.3996C23.2439 27.5054 22.5067 27.7265 21.7209 28.1014C19.8195 28.9667 17.5591 30.7068 17.2681 33.639C17.627 33.3795 17.9762 33.043 18.3352 32.6873C19.1986 31.8412 20.0911 30.976 21.3328 30.976C21.6433 30.976 21.9634 31.0337 22.2835 31.1394C22.3029 31.149 22.332 31.1586 22.3514 31.1586C23.2828 30.601 24.3111 30.0819 25.708 30.0819C25.8438 30.0819 25.97 30.0819 26.1058 30.0915Z" fill="#D8AE00"/>
<path fill-rule="evenodd" clip-rule="evenodd" d="M23.079 23.6406C22.7394 23.6406 22.5745 23.6502 22.6036 23.9963C22.6812 24.775 23.0111 26.2363 23.3894 26.8997C23.7775 26.2363 24.1073 24.775 24.1752 23.9963C24.214 23.6502 24.0491 23.6406 23.7096 23.6406H23.6804C23.5543 23.5829 23.5155 23.4291 23.5349 23.2176C23.826 23.2176 24.0394 22.8907 24.0394 22.6503C24.0394 22.2273 23.7484 22.0831 23.3894 22.0831C23.0305 22.0831 22.7491 22.2273 22.7491 22.6503C22.7491 22.8907 22.9626 23.2176 23.2536 23.2176C23.2633 23.4291 23.2245 23.5829 23.1081 23.6406H23.079Z" fill="#D8AE00"/>
<path fill-rule="evenodd" clip-rule="evenodd" d="M35.1957 19.3912C35.1957 21.0256 34.7106 21.1698 34.536 21.1698C34.5069 21.1698 34.4778 21.1602 34.4778 21.1602V23.4291C35.4091 23.0061 35.1957 22.2946 35.768 21.8716C35.768 21.8716 35.768 20.5257 35.768 19.3912C35.768 19.1605 35.6128 19.0355 35.4673 19.0355C35.3315 19.0355 35.1957 19.1509 35.1957 19.3912Z" fill="#D8AE00"/>
<path fill-rule="evenodd" clip-rule="evenodd" d="M24.9416 7.18154C24.8349 7.18154 24.6797 7.17193 24.5438 7.1527C24.5147 7.14308 24.4953 7.14308 24.4662 7.13347V14.7765C20.0231 18.0549 23.2342 19.5162 24.4662 21.4389L24.408 23.5732L24.3983 23.7847L24.4953 23.804L26.1057 24.1404C26.5617 23.1214 26.3191 22.2657 27.4736 21.0928C27.4736 21.0928 27.3281 24.2077 28.4728 24.9865C28.8511 25.246 29.3556 25.3518 29.9086 25.3518C31.8779 25.3518 34.4778 24.0635 34.4778 24.0635L33.983 22.6503L30.122 23.6405C29.8988 22.833 30.3451 22.2081 29.472 21.2274C29.763 20.4487 30.1317 18.6221 29.0452 18.324C27.7549 17.9683 25.8923 18.1125 25.8923 15.6322C25.8923 14.8534 26.8236 14.7669 26.8236 13.7863C26.8236 12.6518 25.9699 12.5076 25.9699 11.1617C25.9699 10.1042 26.6878 9.52733 26.6878 8.82551C26.6878 7.87374 25.9699 7.90258 25.9699 7.04694V6.95081C25.7177 7.14308 25.2423 7.18154 24.9416 7.18154Z" fill="#D8AE00"/>
<path fill-rule="evenodd" clip-rule="evenodd" d="M29.4718 14.0651C29.4621 14.0555 29.4427 14.0362 29.433 14.0362C29.2681 13.8632 29.0935 13.7959 28.9092 13.7959C28.5502 13.7959 28.201 14.0555 27.9682 14.2862C27.6189 14.6323 26.9107 14.8438 26.969 15.2764C27.0272 15.6994 27.6092 15.911 28.0458 15.911C28.6181 15.911 28.8219 15.3437 29.3942 15.1995H29.4039C29.4718 15.1803 29.53 15.1226 29.5591 15.0265C29.5689 15.0169 29.5689 14.9976 29.5689 14.988C29.598 14.863 29.6077 14.69 29.5883 14.5266V14.4881C29.5689 14.2958 29.5203 14.1228 29.4718 14.0651Z" fill="#D8AE00"/>
<path fill-rule="evenodd" clip-rule="evenodd" d="M30.9077 15.1996C30.9077 13.9978 29.7629 13.8536 29.7629 13.8536V13.9305C29.7629 14.1228 29.7532 14.2959 29.7435 14.4593C29.7532 14.4785 29.7532 14.5074 29.7435 14.5266C29.7435 14.6804 29.7338 14.8246 29.7241 14.9592V14.9977C29.7144 15.1419 29.7047 15.2669 29.695 15.3919C29.6756 15.7283 29.6465 16.0264 29.6174 16.334C29.6174 16.334 30.9077 16.334 30.9077 15.1996Z" fill="#D8AE00"/>
<path fill-rule="evenodd" clip-rule="evenodd" d="M28.5407 17.901C28.8027 18.0548 29.0452 18.1125 29.2683 18.1125C29.9571 18.1125 30.4033 17.5068 30.4033 17.1896C30.4033 16.5551 29.6564 16.8146 29.2586 16.6224C29.2101 16.6031 29.2392 16.4782 29.2974 16.3147C29.2974 16.3147 29.2974 16.3147 29.2974 16.3051C29.3556 16.1321 29.4429 15.9206 29.5108 15.7379V15.7283C29.5302 15.6321 29.5594 15.5456 29.5594 15.4879H29.5691C29.5788 15.411 29.5691 15.3629 29.54 15.3437C29.54 15.3437 29.5302 15.3341 29.5108 15.3341C29.5011 15.3341 29.5011 15.3341 29.4914 15.3341C29.4623 15.3437 29.4332 15.3533 29.3847 15.3822C29.3847 15.3822 29.3847 15.3822 29.375 15.3822C29.181 15.4783 28.8706 15.7475 28.6086 16.0744C28.5989 16.084 28.5989 16.084 28.5989 16.084C28.1236 16.6704 27.7938 17.4588 28.5407 17.901Z" fill="#D8AE00"/>
<path fill-rule="evenodd" clip-rule="evenodd" d="M21.9535 31.3797C21.7304 31.322 21.5267 31.2932 21.3326 31.2932C19.6349 31.2932 18.5969 33.1775 17.2388 34.0427C17.2097 34.0716 17.1806 34.0812 17.1515 34.1004C17.1321 34.1197 17.1127 34.1293 17.0933 34.1389C17.1321 34.1389 17.1709 34.1389 17.2097 34.1293C17.297 34.1293 17.3746 34.1293 17.4522 34.1197C17.588 34.11 17.7141 34.1004 17.8402 34.0908C20.0715 33.8985 21.4394 33.3986 23.2535 33.3986C23.6997 33.3986 24.1654 33.4274 24.6795 33.4947C27.0369 32.9275 28.5406 33.3505 30.5487 32.9275C29.7532 32.6583 29.4719 32.1584 28.1137 32.1488C27.5413 32.0046 27.3958 31.4854 27.0369 31.1586C26.8235 31.5912 26.1929 31.995 25.0191 31.995C24.3303 31.995 23.4669 31.8604 22.3707 31.5047C22.3028 31.4854 22.2445 31.4566 22.1766 31.4374C22.099 31.4085 22.0214 31.3893 21.9535 31.3797Z" fill="#D8AE00"/>
<path fill-rule="evenodd" clip-rule="evenodd" d="M11.7967 6.47019C14.513 6.47019 15.8129 3.87443 18.4419 3.87443H18.5583C19.6351 3.87443 20.5762 4.38397 21.0515 5.48957C21.2067 5.88374 21.2746 6.00872 21.391 6.55671H24.0006C24.0006 6.1337 24.1074 5.57609 24.1753 5.27806H22.1089C21.9828 4.75891 21.1776 3.81675 20.7896 3.50911C20.1687 3.03802 19.5769 2.70154 18.5001 2.70154C15.4637 2.70154 14.2801 5.94142 11.6123 5.94142H11.5541C11.0206 5.94142 10.5355 5.39343 10.5355 4.99926C10.5355 4.48972 10.8654 4.23015 11.3698 4.23015C11.9228 4.23976 12.0877 4.83582 12.0877 5.22999C12.7377 4.37436 12.0295 3.75907 11.3116 3.75907C10.6131 3.75907 10.002 4.25899 10.002 4.94158C10.002 5.89335 10.7877 6.47019 11.7967 6.47019Z" fill="#D8AE00"/>
<path fill-rule="evenodd" clip-rule="evenodd" d="M26.1639 6.55671H29.1131C29.2295 6.00872 29.2974 5.88374 29.4526 5.48957C29.9279 4.38397 30.869 3.87443 31.9458 3.87443H32.0622C34.6912 3.87443 35.9911 6.47019 38.7074 6.47019C39.7164 6.47019 40.5021 5.89335 40.5021 4.94158C40.5021 4.25899 39.891 3.75907 39.1925 3.75907C38.4746 3.75907 37.7664 4.37436 38.4067 5.22999C38.4164 4.83582 38.5813 4.23976 39.1246 4.23015C39.6388 4.23015 39.9686 4.48972 39.9686 4.99926C39.9686 5.39343 39.4835 5.94142 38.95 5.94142H38.8918C36.2143 5.94142 35.0404 2.70154 32.004 2.70154C30.9272 2.70154 30.3354 3.03802 29.7145 3.50911C29.3265 3.81675 28.5213 4.75891 28.3952 5.27806H26.1057C26.1639 5.57609 26.2512 6.1337 26.1639 6.55671Z" fill="#D8AE00"/>
<path fill-rule="evenodd" clip-rule="evenodd" d="M24.4661 6.77777C24.5146 6.80661 24.5631 6.82583 24.6116 6.83545C24.6989 6.85468 24.8153 6.86429 24.9414 6.86429C25.2422 6.86429 25.5914 6.81622 25.7466 6.71047C25.7854 6.68163 25.8145 6.65278 25.8242 6.62394C25.8339 6.60471 25.8339 6.57587 25.8339 6.55665C25.863 6.47012 25.8727 6.37398 25.8727 6.26823C25.8921 5.91251 25.8242 5.4895 25.7854 5.278C25.766 5.19147 25.7563 5.13379 25.7563 5.13379H24.534C24.534 5.13379 24.5243 5.18186 24.5049 5.278L24.4661 5.43182C24.4079 5.73946 24.3206 6.20093 24.3206 6.55665C24.3206 6.61433 24.3497 6.6624 24.3982 6.71047C24.4079 6.73931 24.437 6.75854 24.4661 6.77777Z" fill="#D8AE00"/>
<path fill-rule="evenodd" clip-rule="evenodd" d="M40.4925 17.0743C40.4925 17.0743 42.1126 14.0652 40.4925 14.0652C38.8724 14.0652 40.4925 17.0743 40.4925 17.0743Z" fill="#D8AE00"/>
<path fill-rule="evenodd" clip-rule="evenodd" d="M38.2223 14.8246C38.9499 14.9496 39.5999 14.4209 39.5999 13.1807C39.3962 13.5075 38.9499 14.1036 38.2223 13.9882C37.4948 13.8633 36.8545 14.3824 36.8545 15.6322C37.0485 15.3053 37.4948 14.7093 38.2223 14.8246Z" fill="#D8AE00"/>
<path fill-rule="evenodd" clip-rule="evenodd" d="M40.1626 13.5075C40.1626 13.6806 40.3081 13.8248 40.4924 13.8248C40.6671 13.8248 40.8126 13.6806 40.8126 13.5075C40.8126 13.3249 40.6671 13.1807 40.4924 13.1807C40.3081 13.1807 40.1626 13.3249 40.1626 13.5075Z" fill="#D8AE00"/>
<path fill-rule="evenodd" clip-rule="evenodd" d="M38.6685 12.2578C38.6685 10.6522 35.6321 12.2578 35.6321 12.2578C35.6321 12.2578 38.6685 13.8633 38.6685 12.2578Z" fill="#D8AE00"/>
<path fill-rule="evenodd" clip-rule="evenodd" d="M37.0969 8.65247C37.4171 8.85436 38.0185 9.2966 37.9021 10.0176C37.776 10.7387 38.3096 11.3828 39.561 11.3828C39.2409 11.1809 38.6297 10.7387 38.7558 10.0176C38.8722 9.2966 38.3484 8.65247 37.0969 8.65247Z" fill="#D8AE00"/>
<path fill-rule="evenodd" clip-rule="evenodd" d="M38.9111 12.2577C38.9111 12.4404 39.0566 12.5846 39.241 12.5846C39.4156 12.5846 39.5611 12.4404 39.5611 12.2577C39.5611 12.0846 39.4156 11.9404 39.241 11.9404C39.0566 11.9404 38.9111 12.0846 38.9111 12.2577Z" fill="#D8AE00"/>
<path fill-rule="evenodd" clip-rule="evenodd" d="M40.4925 7.45081C40.4925 7.45081 38.8724 10.46 40.4925 10.46C42.1126 10.46 40.4925 7.45081 40.4925 7.45081Z" fill="#D8AE00"/>
<path fill-rule="evenodd" clip-rule="evenodd" d="M42.7529 10.5368C43.4804 10.6522 44.1304 10.133 44.1304 8.89282C43.9267 9.21008 43.4804 9.81576 42.7529 9.69078C42.0253 9.57541 41.385 10.0946 41.385 11.3348C41.579 11.0175 42.0253 10.4118 42.7529 10.5368Z" fill="#D8AE00"/>
<path fill-rule="evenodd" clip-rule="evenodd" d="M40.8126 11.0176C40.8126 10.8445 40.6671 10.7003 40.4924 10.7003C40.3081 10.7003 40.1626 10.8445 40.1626 11.0176C40.1626 11.1906 40.3081 11.3348 40.4924 11.3348C40.6671 11.3348 40.8126 11.1906 40.8126 11.0176Z" fill="#D8AE00"/>
<path fill-rule="evenodd" clip-rule="evenodd" d="M42.3162 12.2578C42.3162 13.8633 45.3429 12.2578 45.3429 12.2578C45.3429 12.2578 42.3162 10.6522 42.3162 12.2578Z" fill="#D8AE00"/>
<path fill-rule="evenodd" clip-rule="evenodd" d="M43.8879 15.8726C43.5678 15.6707 42.9566 15.2284 43.0827 14.5074C43.1991 13.7863 42.6753 13.1422 41.4238 13.1422C41.744 13.3441 42.3551 13.7863 42.229 14.5074C42.1126 15.2284 42.6365 15.8726 43.8879 15.8726Z" fill="#D8AE00"/>
<path fill-rule="evenodd" clip-rule="evenodd" d="M42.0641 12.2577C42.0641 12.0846 41.9283 11.9404 41.744 11.9404C41.5693 11.9404 41.4238 12.0846 41.4238 12.2577C41.4238 12.4404 41.5693 12.5846 41.744 12.5846C41.9283 12.5846 42.0641 12.4404 42.0641 12.2577Z" fill="#D8AE00"/>
<path fill-rule="evenodd" clip-rule="evenodd" d="M39.8813 12.2577C39.8813 12.5942 40.153 12.8634 40.4925 12.8634C40.8224 12.8634 41.094 12.5942 41.094 12.2577C41.094 11.9308 40.8224 11.6616 40.4925 11.6616C40.153 11.6616 39.8813 11.9308 39.8813 12.2577Z" fill="#D8AE00"/>
</g>
<defs>
<clipPath id="clip0_0_3007">
<rect width="222" height="62" fill="white"/>
</clipPath>
</defs>
</svg>
