<svg width="56" height="69" viewBox="0 0 56 69" fill="none" xmlns="http://www.w3.org/2000/svg">
<path fill-rule="evenodd" clip-rule="evenodd" d="M27.9992 54.3687C24.8259 54.3687 27.9992 60.2397 27.9992 60.2397C27.9992 60.2397 31.1725 54.3687 27.9992 54.3687Z" fill="#D8AE00"/>
<path fill-rule="evenodd" clip-rule="evenodd" d="M23.5574 54.2201C22.1267 53.9865 20.8574 55.0057 20.8574 57.4264C21.2554 56.8 22.1267 55.6215 23.5574 55.8657C24.988 56.0993 26.2573 55.0801 26.2573 52.6594C25.8593 53.2752 24.988 54.4537 23.5574 54.2201Z" fill="#D8AE00"/>
<path fill-rule="evenodd" clip-rule="evenodd" d="M27.3643 53.2751C27.3643 53.6254 27.6439 53.9015 27.9989 53.9015C28.3539 53.9015 28.6336 53.6254 28.6336 53.2751C28.6336 52.9247 28.3539 52.6487 27.9989 52.6487C27.6439 52.6487 27.3643 52.9353 27.3643 53.2751Z" fill="#D8AE00"/>
<path fill-rule="evenodd" clip-rule="evenodd" d="M24.428 50.8544C24.428 47.7224 18.4795 50.8544 18.4795 50.8544C18.4795 50.8544 24.428 53.9757 24.428 50.8544Z" fill="#D8AE00"/>
<path fill-rule="evenodd" clip-rule="evenodd" d="M21.3418 43.8049C21.9764 44.1978 23.1705 45.0577 22.923 46.4697C22.6864 47.8818 23.7191 49.1346 26.1716 49.1346C25.537 48.7417 24.3429 47.8818 24.5904 46.4697C24.827 45.0577 23.7944 43.8049 21.3418 43.8049Z" fill="#D8AE00"/>
<path fill-rule="evenodd" clip-rule="evenodd" d="M24.9023 50.8545C24.9023 51.2048 25.182 51.4809 25.537 51.4809C25.892 51.4809 26.1716 51.2048 26.1716 50.8545C26.1716 50.5041 25.892 50.2281 25.537 50.2281C25.1928 50.2175 24.9023 50.5041 24.9023 50.8545Z" fill="#D8AE00"/>
<path fill-rule="evenodd" clip-rule="evenodd" d="M27.9992 47.3296C31.1725 47.3296 27.9992 41.4585 27.9992 41.4585C27.9992 41.4585 24.8259 47.3296 27.9992 47.3296Z" fill="#D8AE00"/>
<path fill-rule="evenodd" clip-rule="evenodd" d="M32.4431 47.4782C33.8738 47.7118 35.1431 46.6926 35.1431 44.272C34.7451 44.8984 33.8738 46.0768 32.4431 45.8326C31.0125 45.5991 29.7432 46.6183 29.7432 49.0389C30.1412 48.4231 31.0125 47.2447 32.4431 47.4782Z" fill="#D8AE00"/>
<path fill-rule="evenodd" clip-rule="evenodd" d="M28.6336 48.4233C28.6336 48.0729 28.3539 47.7969 27.9989 47.7969C27.6439 47.7969 27.3643 48.0729 27.3643 48.4233C27.3643 48.7736 27.6439 49.0497 27.9989 49.0497C28.3539 49.0497 28.6336 48.763 28.6336 48.4233Z" fill="#D8AE00"/>
<path fill-rule="evenodd" clip-rule="evenodd" d="M31.5723 50.8544C31.5723 53.9863 37.5208 50.8544 37.5208 50.8544C37.5208 50.8544 31.5723 47.7224 31.5723 50.8544Z" fill="#D8AE00"/>
<path fill-rule="evenodd" clip-rule="evenodd" d="M33.0767 55.2393C33.3133 53.8272 32.2807 52.5745 29.8281 52.5745C30.4628 52.9673 31.6568 53.8272 31.4201 55.2393C31.1835 56.6513 32.2161 57.9041 34.6687 57.9041C34.0233 57.5007 32.84 56.6407 33.0767 55.2393Z" fill="#D8AE00"/>
<path fill-rule="evenodd" clip-rule="evenodd" d="M29.8281 50.8545C29.8281 51.2048 30.1078 51.4809 30.4628 51.4809C30.8178 51.4809 31.0974 51.2048 31.0974 50.8545C31.0974 50.5041 30.8178 50.2281 30.4628 50.2281C30.1078 50.2175 29.8281 50.5041 29.8281 50.8545Z" fill="#D8AE00"/>
<path fill-rule="evenodd" clip-rule="evenodd" d="M26.8066 50.8545C26.8066 51.5021 27.3445 52.033 28.0006 52.033C28.6568 52.033 29.1947 51.5021 29.1947 50.8545C29.1947 50.2069 28.6568 49.676 28.0006 49.676C27.3445 49.676 26.8066 50.1962 26.8066 50.8545Z" fill="#D8AE00"/>
<path fill-rule="evenodd" clip-rule="evenodd" d="M49.1376 31.9672C48.5675 31.6699 47.9759 31.3514 47.2014 31.3514C46.4377 31.362 45.8138 31.6805 45.2222 31.9884C44.609 32.3069 43.9851 32.636 43.1569 32.6679C42.8341 32.0946 41.0915 29.3024 37.5203 29.3024C35.2076 29.3024 33.5725 30.311 32.1419 31.2028C31.206 31.7867 30.3025 32.3388 29.3021 32.5723V33.2306L28.9256 33.5809C28.7857 33.5703 28.6459 33.5703 28.5061 33.5703C27.183 33.5703 26.1718 34.0268 25.236 34.5471C26.1826 34.8337 27.0216 34.9823 27.7423 34.9823C29.1837 34.9823 29.5817 34.4197 29.6678 34.2498L30.2272 34.1542C30.3778 34.2922 30.4961 34.4515 30.6036 34.6108C30.8188 34.8974 30.9586 35.0779 31.2275 35.1522C32.314 35.1628 32.8411 35.4601 33.3144 35.7149C33.5295 35.8317 33.7339 35.9485 33.992 36.0334L33.949 36.7023C32.8841 36.9358 31.9698 36.9464 31.0016 36.9677C29.926 36.9889 28.818 36.9995 27.4519 37.3287L27.3121 37.3393C26.785 37.265 26.2902 37.2331 25.7846 37.2331C24.7089 37.2331 23.7946 37.3924 22.7297 37.5835C21.6862 37.7639 20.503 37.9763 18.9755 38.0506L18.8572 37.6684L18.7604 37.6047C18.7604 37.5304 18.7819 37.4773 18.7819 37.403V37.3924C19.0078 33.9737 21.4496 31.8716 23.7408 30.7781C23.4073 30.5233 23.0631 30.2473 22.7081 29.95C22.7727 28.7397 22.8372 26.6057 20.8149 24.9389C20.858 24.8539 20.987 24.7796 21.3851 24.7796C21.4926 24.7796 21.9552 24.8008 22.0735 24.8008L22.2133 24.7902L22.3854 24.6097L22.3747 24.4293C22.3532 24.1851 22.3317 23.9727 22.45 23.8453C22.5898 23.6967 22.9018 23.6224 23.3966 23.6224L23.5794 23.4419V22.0511L23.3966 21.8706H9.91828L9.77845 21.9343L9.63861 22.0936C7.51951 24.408 5.34664 26.7968 5.29285 30.3216C5.27134 30.5021 4.89485 30.6613 4.5829 30.7993C4.17414 30.9798 3.7869 31.1497 3.7116 31.4682L3.88371 31.6805C5.4542 31.6593 6.63745 31.6062 7.76692 31.5637C9.25136 31.5107 10.6497 31.447 12.6935 31.447L12.8657 31.2452C12.7796 30.6401 12.2202 29.6209 11.1876 29.5572C10.1549 29.0476 9.87526 28.538 9.95055 28.2407C10.0151 27.954 10.3916 27.7523 10.8756 27.7523C11.79 27.7523 13.4788 28.538 14.0812 31.4257C11.4888 33.0926 11.876 35.131 12.274 37.2862L12.2955 37.403C10.4346 36.6173 8.77806 36.2457 7.1 36.2457C5.58329 36.2457 4.07733 36.543 2.50684 37.1588V39.091C3.85144 38.5602 5.06696 38.3054 6.27172 38.3054C6.84183 38.3054 7.36892 38.3585 7.86373 38.4434C5.08847 38.5177 3.7116 39.1547 2.50684 39.8236V40.3651C2.50684 41.0976 2.53911 41.8302 2.60365 42.5521C4.69047 41.0658 6.56216 40.3226 8.20795 40.3226C10.4561 40.3226 11.7577 41.6922 12.5429 42.7326L12.6935 42.8069H18.6421L18.7819 42.722C21.1484 39.314 24.483 37.4348 28.1941 37.4348C32.0451 37.4348 35.7992 39.5476 37.1223 42.4672L37.2836 42.5733L42.9202 42.5521C43.2967 42.3398 43.6732 42.1274 44.0389 41.9151C45.3943 41.1082 46.6851 40.3544 48.4277 40.3544C49.8799 40.3544 51.5257 40.9065 53.4296 42.0213C53.4726 41.4692 53.4942 40.9171 53.4942 40.3651V40.312C52.7304 39.7811 51.8376 39.4308 51.0631 39.1335C50.5791 38.9424 50.138 38.7725 49.8046 38.5814C50.1058 38.5496 50.4177 38.5283 50.7512 38.4965C51.6332 38.4222 52.5906 38.3479 53.4942 38.0294V36.0971C52.4077 36.6386 51.4073 36.8934 50.3854 36.8934C49.2129 36.8934 48.0405 36.543 46.8142 35.8211L46.6205 35.8317C46.2225 36.0971 45.8676 36.3944 45.5126 36.681C44.6198 37.403 43.77 38.0931 42.4039 38.454C43.06 37.265 43.372 35.9166 43.3397 34.3453L53.4942 34.2073V31.3408C52.4615 32.1583 51.6117 32.5405 50.848 32.5405C50.2026 32.5405 49.6862 32.2644 49.1376 31.9672Z" fill="#D8AE00"/>
<path fill-rule="evenodd" clip-rule="evenodd" d="M0 0V40.8322C0 56.0885 12.5317 68.4677 28 68.4677C43.4683 68.4677 56 56.0885 56 40.8322V0H0ZM28 65.8772C14.554 65.8772 3.49597 55.7382 2.26969 42.7857C2.19439 41.9894 2.15136 41.1825 2.15136 40.365V40.0253V39.2503V37.3074V2.05966H53.8486V31.0541V34.1967V35.906V37.8913V40.5668C53.8486 41.1188 53.8164 41.6709 53.7733 42.223C52.816 55.4409 41.6396 65.8772 28 65.8772Z" fill="#D8AE00"/>
<path fill-rule="evenodd" clip-rule="evenodd" d="M11.1002 15.5325C9.30376 15.5325 11.1002 18.8555 11.1002 18.8555C11.1002 18.8555 12.8965 15.5325 11.1002 15.5325Z" fill="#D8AE00"/>
<path fill-rule="evenodd" clip-rule="evenodd" d="M8.59485 15.4475C7.78809 15.3095 7.06738 15.8828 7.06738 17.2629C7.29328 16.902 7.78809 16.2437 8.59485 16.3711C9.40161 16.5092 10.1116 15.9252 10.1116 14.5557C9.89643 14.9166 9.40161 15.5749 8.59485 15.4475Z" fill="#D8AE00"/>
<path fill-rule="evenodd" clip-rule="evenodd" d="M10.7461 14.9166C10.7461 15.1077 10.9074 15.267 11.1011 15.267C11.3054 15.267 11.4668 15.1077 11.4668 14.9166C11.4668 14.7149 11.3054 14.5557 11.1011 14.5557C10.9074 14.5557 10.7461 14.7149 10.7461 14.9166Z" fill="#D8AE00"/>
<path fill-rule="evenodd" clip-rule="evenodd" d="M9.08856 13.5363C9.08856 11.7633 5.72168 13.5363 5.72168 13.5363C5.72168 13.5363 9.08856 15.3093 9.08856 13.5363Z" fill="#D8AE00"/>
<path fill-rule="evenodd" clip-rule="evenodd" d="M8.22875 11.0628C8.09967 11.859 8.68054 12.5703 10.0682 12.5703C9.71319 12.3474 9.03551 11.859 9.17535 11.0628C9.30443 10.2665 8.72357 9.55518 7.33594 9.55518C7.69091 9.77813 8.36859 10.2665 8.22875 11.0628Z" fill="#D8AE00"/>
<path fill-rule="evenodd" clip-rule="evenodd" d="M10.0683 13.5364C10.0683 13.3453 9.907 13.186 9.71337 13.186C9.50899 13.186 9.3584 13.3453 9.3584 13.5364C9.3584 13.7381 9.50899 13.8974 9.71337 13.8974C9.907 13.8974 10.0683 13.7381 10.0683 13.5364Z" fill="#D8AE00"/>
<path fill-rule="evenodd" clip-rule="evenodd" d="M11.1002 11.5511C12.8965 11.5511 11.1002 8.22803 11.1002 8.22803C11.1002 8.22803 9.30376 11.5511 11.1002 11.5511Z" fill="#D8AE00"/>
<path fill-rule="evenodd" clip-rule="evenodd" d="M13.6193 11.636C14.426 11.7634 15.136 11.1901 15.136 9.82056C14.9208 10.1709 14.426 10.8398 13.6193 10.7018C12.8125 10.5743 12.0918 11.1477 12.0918 12.5172C12.3177 12.1669 12.8125 11.498 13.6193 11.636Z" fill="#D8AE00"/>
<path fill-rule="evenodd" clip-rule="evenodd" d="M11.4668 12.1668C11.4668 11.9757 11.3054 11.8164 11.1011 11.8164C10.9074 11.8164 10.7461 11.9757 10.7461 12.1668C10.7461 12.3579 10.9074 12.5171 11.1011 12.5171C11.3054 12.5171 11.4668 12.3579 11.4668 12.1668Z" fill="#D8AE00"/>
<path fill-rule="evenodd" clip-rule="evenodd" d="M13.123 13.5363C13.123 15.3093 16.4899 13.5363 16.4899 13.5363C16.4899 13.5363 13.123 11.7633 13.123 13.5363Z" fill="#D8AE00"/>
<path fill-rule="evenodd" clip-rule="evenodd" d="M14.866 17.5284C14.511 17.3054 13.8441 16.817 13.9732 16.0208C14.113 15.2245 13.5214 14.5132 12.1338 14.5132C12.4888 14.7361 13.1664 15.2245 13.0374 16.0208C12.8975 16.817 13.4784 17.5284 14.866 17.5284Z" fill="#D8AE00"/>
<path fill-rule="evenodd" clip-rule="evenodd" d="M12.1338 13.5364C12.1338 13.7381 12.2951 13.8974 12.4888 13.8974C12.6931 13.8974 12.8545 13.7381 12.8545 13.5364C12.8545 13.3453 12.6931 13.186 12.4888 13.186C12.2951 13.186 12.1338 13.3453 12.1338 13.5364Z" fill="#D8AE00"/>
<path fill-rule="evenodd" clip-rule="evenodd" d="M11.7792 13.5364C11.7792 13.1754 11.478 12.8782 11.1015 12.8782C10.7358 12.8782 10.4346 13.1754 10.4346 13.5364C10.4346 13.908 10.7358 14.2053 11.1015 14.2053C11.478 14.2053 11.7792 13.908 11.7792 13.5364Z" fill="#D8AE00"/>
<path fill-rule="evenodd" clip-rule="evenodd" d="M28.9469 33.2305V27.0515H27.3657C27.3657 29.3129 26.7203 29.1112 26.333 30.2578C25.7737 30.3746 24.9561 30.6188 24.0848 31.0328C21.9765 31.9883 19.4702 33.91 19.1475 37.1481C19.5455 36.8614 19.9327 36.4898 20.3307 36.097C21.2881 35.1627 22.2777 34.2072 23.6546 34.2072C23.9988 34.2072 24.3538 34.2709 24.7087 34.3877C24.7303 34.3983 24.7625 34.409 24.784 34.409C25.8167 33.7932 26.9569 33.2199 28.5059 33.2199C28.6565 33.2199 28.7963 33.2199 28.9469 33.2305Z" fill="#D8AE00"/>
<path fill-rule="evenodd" clip-rule="evenodd" d="M25.5913 26.1066C25.2148 26.1066 25.0319 26.1173 25.0642 26.4995C25.1502 27.3594 25.516 28.9732 25.9355 29.7057C26.3658 28.9732 26.7315 27.3594 26.8068 26.4995C26.8498 26.1173 26.667 26.1066 26.2905 26.1066H26.2582C26.1184 26.0429 26.0753 25.8731 26.0968 25.6395C26.4195 25.6395 26.6562 25.2785 26.6562 25.0131C26.6562 24.546 26.3335 24.3867 25.9355 24.3867C25.5375 24.3867 25.2255 24.546 25.2255 25.0131C25.2255 25.2785 25.4622 25.6395 25.7849 25.6395C25.7957 25.8731 25.7526 26.0429 25.6235 26.1066H25.5913Z" fill="#D8AE00"/>
<path fill-rule="evenodd" clip-rule="evenodd" d="M39.0265 21.4141C39.0265 23.2189 38.4886 23.3782 38.295 23.3782C38.2627 23.3782 38.2305 23.3676 38.2305 23.3676V25.8731C39.2631 25.406 39.0265 24.6203 39.6611 24.1532C39.6611 24.1532 39.6611 22.6668 39.6611 21.4141C39.6611 21.1593 39.489 21.0212 39.3277 21.0212C39.1771 21.0212 39.0265 21.1486 39.0265 21.4141Z" fill="#D8AE00"/>
<path fill-rule="evenodd" clip-rule="evenodd" d="M27.6555 7.93083C27.5372 7.93083 27.3651 7.92021 27.2145 7.89898C27.1822 7.88836 27.1607 7.88836 27.1284 7.87774V16.3181C22.2018 19.9384 25.7623 21.5522 27.1284 23.6755L27.0639 26.0325L27.0531 26.266L27.1607 26.2873L28.9463 26.6589C29.4519 25.5335 29.183 24.5886 30.4631 23.2933C30.4631 23.2933 30.3017 26.7332 31.571 27.5931C31.9905 27.8798 32.5499 27.9966 33.163 27.9966C35.3467 27.9966 38.2295 26.5739 38.2295 26.5739L37.6809 25.0132L33.3997 26.1068C33.1523 25.215 33.6471 24.5249 32.679 23.442C33.0017 22.582 33.4104 20.5648 32.2057 20.2357C30.775 19.8429 28.7097 20.0021 28.7097 17.263C28.7097 16.403 29.7423 16.3075 29.7423 15.2246C29.7423 13.9718 28.7957 13.8125 28.7957 12.3262C28.7957 11.1583 29.5918 10.5213 29.5918 9.7463C29.5918 8.69524 28.7957 8.72709 28.7957 7.78219V7.67603C28.5161 7.88836 27.989 7.93083 27.6555 7.93083Z" fill="#D8AE00"/>
<path fill-rule="evenodd" clip-rule="evenodd" d="M32.6794 15.5324C32.6686 15.5218 32.6471 15.5005 32.6364 15.5005C32.4535 15.3094 32.2599 15.2351 32.0555 15.2351C31.6575 15.2351 31.2703 15.5218 31.0121 15.7766C30.6248 16.1588 29.8396 16.3923 29.9041 16.8701C29.9687 17.3372 30.6141 17.5708 31.0981 17.5708C31.7328 17.5708 31.9587 16.9444 32.5933 16.7852H32.6041C32.6794 16.7639 32.7439 16.7002 32.7762 16.5941C32.787 16.5834 32.787 16.5622 32.787 16.5516C32.8192 16.4136 32.83 16.2225 32.8085 16.042V15.9995C32.787 15.7872 32.7332 15.5961 32.6794 15.5324Z" fill="#D8AE00"/>
<path fill-rule="evenodd" clip-rule="evenodd" d="M34.2715 16.7852C34.2715 15.4581 33.0022 15.2988 33.0022 15.2988V15.3838C33.0022 15.5961 32.9914 15.7872 32.9807 15.9677C32.9914 15.9889 32.9914 16.0208 32.9807 16.042C32.9807 16.2119 32.9699 16.3711 32.9591 16.5198V16.5622C32.9484 16.7215 32.9376 16.8595 32.9269 16.9975C32.9054 17.3691 32.8731 17.6982 32.8408 18.038C32.8408 18.038 34.2715 18.038 34.2715 16.7852Z" fill="#D8AE00"/>
<path fill-rule="evenodd" clip-rule="evenodd" d="M31.6465 19.7685C31.937 19.9384 32.2059 20.0021 32.4533 20.0021C33.217 20.0021 33.7118 19.3332 33.7118 18.9829C33.7118 18.2822 32.8836 18.5688 32.4425 18.3565C32.3887 18.3353 32.421 18.1972 32.4856 18.0168C32.4856 18.0168 32.4856 18.0167 32.4856 18.0061C32.5501 17.815 32.6469 17.5815 32.7222 17.3797V17.3691C32.7437 17.263 32.776 17.1674 32.776 17.1037H32.7867C32.7975 17.0188 32.7867 16.9657 32.7545 16.9445C32.7545 16.9445 32.7437 16.9338 32.7222 16.9338C32.7114 16.9338 32.7114 16.9338 32.7007 16.9338C32.6684 16.9445 32.6362 16.9551 32.5824 16.9869C32.5824 16.9869 32.5824 16.9869 32.5716 16.9869C32.3565 17.0931 32.0123 17.3904 31.7218 17.7513C31.7111 17.7619 31.7111 17.7619 31.7111 17.7619C31.184 18.4096 30.8182 19.2802 31.6465 19.7685Z" fill="#D8AE00"/>
<path fill-rule="evenodd" clip-rule="evenodd" d="M24.3433 34.6531C24.0959 34.5894 23.87 34.5576 23.6548 34.5576C21.7724 34.5576 20.6214 36.6385 19.1155 37.594C19.0832 37.6258 19.0509 37.6364 19.0186 37.6577C18.9971 37.6789 18.9756 37.6895 18.9541 37.7001C18.9971 37.7001 19.0402 37.7001 19.0832 37.6895C19.18 37.6895 19.266 37.6895 19.3521 37.6789C19.5027 37.6683 19.6425 37.6577 19.7824 37.6471C22.2564 37.4347 23.7732 36.8827 25.7847 36.8827C26.2795 36.8827 26.7958 36.9145 27.3659 36.9888C29.9798 36.3624 31.6471 36.8296 33.8738 36.3624C32.9917 36.0652 32.6798 35.5131 31.1738 35.5025C30.5392 35.3432 30.3778 34.7699 29.9798 34.4089C29.7432 34.8867 29.044 35.3326 27.7424 35.3326C26.9787 35.3326 26.0213 35.184 24.8058 34.7911C24.7305 34.7699 24.666 34.7381 24.5907 34.7168C24.5046 34.685 24.4186 34.6637 24.3433 34.6531Z" fill="#D8AE00"/>
<path fill-rule="evenodd" clip-rule="evenodd" d="M13.0808 7.14518C16.0927 7.14518 17.5342 4.27865 20.4493 4.27865H20.5783C21.7723 4.27865 22.8158 4.84134 23.3428 6.06227C23.5149 6.49756 23.5902 6.63557 23.7193 7.24073H26.6129C26.6129 6.77359 26.7312 6.15782 26.8065 5.8287H24.5153C24.3755 5.25539 23.4827 4.21495 23.0524 3.87521C22.364 3.35499 21.7078 2.9834 20.5138 2.9834C17.1469 2.9834 15.8346 6.56126 12.8765 6.56126H12.8119C12.2203 6.56126 11.6824 5.9561 11.6824 5.52081C11.6824 4.95812 12.0482 4.67147 12.6075 4.67147C13.2207 4.68209 13.4035 5.34033 13.4035 5.77561C14.1242 4.83072 13.339 4.15125 12.543 4.15125C11.7685 4.15125 11.0908 4.70332 11.0908 5.45711C11.0908 6.50817 11.9621 7.14518 13.0808 7.14518Z" fill="#D8AE00"/>
<path fill-rule="evenodd" clip-rule="evenodd" d="M29.0108 7.24073H32.2809C32.41 6.63557 32.4853 6.49756 32.6574 6.06227C33.1845 4.84134 34.2279 4.27865 35.4219 4.27865H35.551C38.4661 4.27865 39.9075 7.14518 42.9194 7.14518C44.0381 7.14518 44.9094 6.50817 44.9094 5.45711C44.9094 4.70332 44.2317 4.15125 43.4572 4.15125C42.6612 4.15125 41.876 4.83072 42.5859 5.77561C42.5967 5.34033 42.7796 4.68209 43.3819 4.67147C43.9521 4.67147 44.3178 4.95812 44.3178 5.52081C44.3178 5.9561 43.7799 6.56126 43.1883 6.56126H43.1238C40.1549 6.56126 38.8533 2.9834 35.4864 2.9834C34.2924 2.9834 33.6363 3.35499 32.9478 3.87521C32.5176 4.21495 31.6247 5.25539 31.4849 5.8287H28.9463C29.0108 6.15782 29.1076 6.77359 29.0108 7.24073Z" fill="#D8AE00"/>
<path fill-rule="evenodd" clip-rule="evenodd" d="M27.1291 7.4849C27.1829 7.51676 27.2367 7.53799 27.2905 7.54861C27.3873 7.56984 27.5164 7.58046 27.6562 7.58046C27.9897 7.58046 28.3769 7.52737 28.549 7.41059C28.5921 7.37874 28.6243 7.34689 28.6351 7.31504C28.6458 7.2938 28.6458 7.26195 28.6458 7.24072C28.6781 7.14517 28.6889 7.039 28.6889 6.92221C28.7104 6.52939 28.6351 6.06225 28.5921 5.82869C28.5705 5.73313 28.5598 5.66943 28.5598 5.66943H27.2044C27.2044 5.66943 27.1937 5.72252 27.1722 5.82869L27.1291 5.99855C27.0646 6.33829 26.9678 6.8479 26.9678 7.24072C26.9678 7.30442 27 7.3575 27.0538 7.41059C27.0646 7.44244 27.0969 7.46367 27.1291 7.4849Z" fill="#D8AE00"/>
<path fill-rule="evenodd" clip-rule="evenodd" d="M44.899 18.8555C44.899 18.8555 46.6954 15.5325 44.899 15.5325C43.1026 15.5325 44.899 18.8555 44.899 18.8555Z" fill="#D8AE00"/>
<path fill-rule="evenodd" clip-rule="evenodd" d="M42.3819 16.3711C43.1887 16.5092 43.9094 15.9252 43.9094 14.5557C43.6835 14.9166 43.1887 15.5749 42.3819 15.4475C41.5752 15.3095 40.8652 15.8828 40.8652 17.2629C41.0804 16.902 41.5752 16.2437 42.3819 16.3711Z" fill="#D8AE00"/>
<path fill-rule="evenodd" clip-rule="evenodd" d="M44.5332 14.9166C44.5332 15.1077 44.6946 15.267 44.8989 15.267C45.0926 15.267 45.2539 15.1077 45.2539 14.9166C45.2539 14.7149 45.0926 14.5557 44.8989 14.5557C44.6946 14.5557 44.5332 14.7149 44.5332 14.9166Z" fill="#D8AE00"/>
<path fill-rule="evenodd" clip-rule="evenodd" d="M42.8757 13.5363C42.8757 11.7633 39.5088 13.5363 39.5088 13.5363C39.5088 13.5363 42.8757 15.3093 42.8757 13.5363Z" fill="#D8AE00"/>
<path fill-rule="evenodd" clip-rule="evenodd" d="M41.1338 9.55518C41.4888 9.77813 42.1557 10.2665 42.0266 11.0628C41.8868 11.859 42.4784 12.5703 43.866 12.5703C43.511 12.3474 42.8334 11.859 42.9732 11.0628C43.1023 10.2665 42.5214 9.55518 41.1338 9.55518Z" fill="#D8AE00"/>
<path fill-rule="evenodd" clip-rule="evenodd" d="M43.1455 13.5364C43.1455 13.7381 43.3069 13.8974 43.5112 13.8974C43.7049 13.8974 43.8662 13.7381 43.8662 13.5364C43.8662 13.3453 43.7049 13.186 43.5112 13.186C43.3069 13.186 43.1455 13.3453 43.1455 13.5364Z" fill="#D8AE00"/>
<path fill-rule="evenodd" clip-rule="evenodd" d="M44.899 8.22803C44.899 8.22803 43.1026 11.5511 44.899 11.5511C46.6954 11.5511 44.899 8.22803 44.899 8.22803Z" fill="#D8AE00"/>
<path fill-rule="evenodd" clip-rule="evenodd" d="M47.4054 11.636C48.2121 11.7634 48.9329 11.1901 48.9329 9.82056C48.707 10.1709 48.2121 10.8398 47.4054 10.7018C46.5986 10.5743 45.8887 11.1477 45.8887 12.5172C46.1038 12.1669 46.5986 11.498 47.4054 11.636Z" fill="#D8AE00"/>
<path fill-rule="evenodd" clip-rule="evenodd" d="M45.2539 12.1668C45.2539 11.9757 45.0926 11.8164 44.8989 11.8164C44.6946 11.8164 44.5332 11.9757 44.5332 12.1668C44.5332 12.3579 44.6946 12.5171 44.8989 12.5171C45.0926 12.5171 45.2539 12.3579 45.2539 12.1668Z" fill="#D8AE00"/>
<path fill-rule="evenodd" clip-rule="evenodd" d="M46.9209 13.5363C46.9209 15.3093 50.277 13.5363 50.277 13.5363C50.277 13.5363 46.9209 11.7633 46.9209 13.5363Z" fill="#D8AE00"/>
<path fill-rule="evenodd" clip-rule="evenodd" d="M48.6629 17.5284C48.3079 17.3054 47.6302 16.817 47.7701 16.0208C47.8992 15.2245 47.3183 14.5132 45.9307 14.5132C46.2856 14.7361 46.9633 15.2245 46.8235 16.0208C46.6944 16.817 47.2753 17.5284 48.6629 17.5284Z" fill="#D8AE00"/>
<path fill-rule="evenodd" clip-rule="evenodd" d="M46.6406 13.5364C46.6406 13.3453 46.49 13.186 46.2856 13.186C46.092 13.186 45.9307 13.3453 45.9307 13.5364C45.9307 13.7381 46.092 13.8974 46.2856 13.8974C46.49 13.8974 46.6406 13.7381 46.6406 13.5364Z" fill="#D8AE00"/>
<path fill-rule="evenodd" clip-rule="evenodd" d="M44.2217 13.5364C44.2217 13.908 44.5229 14.2053 44.8994 14.2053C45.2651 14.2053 45.5663 13.908 45.5663 13.5364C45.5663 13.1754 45.2651 12.8782 44.8994 12.8782C44.5229 12.8782 44.2217 13.1754 44.2217 13.5364Z" fill="#D8AE00"/>
</svg>
