<svg width="15" height="16" viewBox="0 0 15 16" fill="none" xmlns="http://www.w3.org/2000/svg">
<g clip-path="url(#clip0_0_5944)">
<path fill-rule="evenodd" clip-rule="evenodd" d="M15 14.1716C14.0686 14.9582 12.6067 16 11.3583 16C10.9185 16 10.4916 15.9172 10.0712 15.793C9.81889 15.7102 9.57956 15.6205 9.3467 15.5101C9.26908 15.4825 9.19146 15.4411 9.12031 15.4066C7.34799 14.5994 5.62096 12.9849 4.24968 11.467C2.83312 10.0043 1.31307 8.15524 0.556274 6.27167C0.517464 6.18887 0.485123 6.10608 0.45925 6.02329C0.355757 5.7818 0.265201 5.52652 0.194049 5.25744C0.0776197 4.80897 0 4.3536 0 3.88443C0 2.55282 0.976714 0.993532 1.7141 0C2.30919 0.0344976 5.02587 3.58775 5.07762 3.71884C4.5925 4.67098 4.3273 5.20224 3.31824 7.46529C3.46701 7.73437 7.86546 12.4398 8.12419 12.5985C9.44373 11.8189 10.2523 11.3428 11.5201 10.5839C11.63 10.6391 14.9677 13.5369 15 14.1716Z" fill="white"/>
</g>
<defs>
<clipPath id="clip0_0_5944">
<rect width="15" height="16" fill="white"/>
</clipPath>
</defs>
</svg>
