<svg width="22" height="23" viewBox="0 0 22 23" fill="none" xmlns="http://www.w3.org/2000/svg">
<g clip-path="url(#clip0_0_6708)">
<path d="M12.8896 0C7.86528 0 3.77919 4.10494 3.77919 9.15243C3.77919 11.2754 4.50697 13.2221 5.71702 14.7725L0 20.5071L2.48147 23L8.36509 17.0892C9.69789 17.8644 11.2411 18.3049 12.8896 18.3049C17.9139 18.3049 22 14.1999 22 9.15243C22 4.10494 17.9139 0 12.8896 0ZM12.8896 16.5431C8.82981 16.5431 5.53288 13.2309 5.53288 9.15243C5.53288 5.07392 8.82981 1.76178 12.8896 1.76178C16.9494 1.76178 20.2463 5.07392 20.2463 9.15243C20.2463 13.2309 16.9406 16.5431 12.8896 16.5431Z" fill="black"/>
</g>
<defs>
<clipPath id="clip0_0_6708">
<rect width="22" height="23" fill="white"/>
</clipPath>
</defs>
</svg>
